<svg width="21817" height="11960" viewBox="0 0 21817 11960" fill="none" xmlns="http://www.w3.org/2000/svg">
<rect width="21817" height="11960" fill="#60D8BA"/>
<g clip-path="url(#clip0_1412_578)">
<path d="M5515.78 9582.91C5508.97 9615.86 5511.75 9714.18 5520.5 9749.87C5533.54 9803.05 5563.89 9906.24 5575.84 9938.11C5604.2 10013.7 5639.91 10047.6 5696.66 10052.9C5731.34 10056.1 5761.67 10049.3 5850.24 10018.3C5932.58 9989.45 6140.5 9940.47 6229.09 9929.02C6248.55 9926.5 6324.93 9922.67 6398.83 9920.51C6530.22 9916.67 6560.65 9912.93 6556.65 9901.11C6554.44 9894.59 6557.95 9894.59 6369.71 9901.19C6262.5 9904.95 6216.86 9908.38 6179.55 9915.42C6084.38 9933.41 5945.88 9966.14 5890.53 9983.76C5737.8 10032.4 5738.4 10032.2 5706.61 10032.2C5679.15 10032.2 5672.94 10030.6 5654.07 10018C5626.31 9999.66 5608.28 9968.97 5585.86 9901.79C5543.21 9774.14 5525.28 9681.77 5532.4 9626.59C5538.9 9576.27 5538.16 9566.08 5528 9566.08C5521.49 9566.1 5518.36 9570.4 5515.78 9582.91ZM5152.86 9979.56C5148.67 10013.1 5125.54 10066.1 5103.23 10093.3C5064.98 10140 5005.36 10169.6 4954.57 10167.2C4886.13 10164 4900.01 10104 4981.35 10051.4C5005.77 10035.6 5146.72 9960.72 5152.32 9960.58C5153.93 9960.54 5154.18 9969.08 5152.86 9979.56ZM5153.76 9320.86C5083.67 9357.36 5016.12 9413.26 4969.35 9473.43C4923.86 9531.99 4911.04 9604.21 4935.18 9665.83C4945.01 9690.91 4951.94 9700.5 4974.37 9720.03C4989.36 9733.08 5013.7 9750.52 5028.47 9758.79C5107.24 9802.89 5137.75 9837.19 5150.49 9896C5154.93 9916.44 5156.11 9930.82 5153.55 9933.23C5151.25 9935.39 5113.11 9956.17 5068.77 9979.41C4969.46 10031.5 4944.62 10047.4 4918.11 10075.8C4901.94 10093.1 4896.07 10103.6 4891.71 10123.1C4886.15 10147.9 4886.2 10148.2 4900.12 10165.8C4920.3 10191.3 4958.98 10196.5 5010.64 10180.8C5096.9 10154.6 5164.74 10069.4 5173.36 9976.47L5176.26 9945.37L5203.13 9929.79C5234.17 9911.79 5238.63 9906.73 5230.5 9898.6C5225.64 9893.73 5220.62 9895.06 5201.69 9906.25L5178.73 9919.79L5174.13 9902.06C5171.61 9892.29 5167.55 9876.66 5165.13 9867.28C5162.71 9857.92 5152.09 9837.84 5141.54 9822.67C5121.43 9793.74 5094 9771.93 5038.09 9740.4C4993.83 9715.44 4966.42 9687.46 4952.75 9653.27C4942.68 9628.06 4941.97 9622.23 4945.33 9590.2C4950.08 9544.6 4959.38 9522.17 4990.69 9480.93C5032.88 9425.36 5100.09 9371 5171.75 9334.52C5200.98 9319.63 5214.29 9310.41 5214.3 9305.02C5214.34 9292.55 5201.9 9295.8 5153.76 9320.86ZM3985.4 9367.77C3979.38 9532.69 3966.99 9652.41 3941.88 9787.96C3921.1 9900.12 3906.85 9950.83 3877.93 10015.6C3864.15 10046.4 3863.48 10054.6 3874.82 10054.6C3881.21 10054.6 3887.74 10044.5 3901.43 10013.2C3959.58 9880.24 4005.18 9590.06 4005.18 9352.88C4005.18 9288.4 4004.62 9283.76 3996.82 9283.76C3989.07 9283.73 3988.24 9289.81 3985.4 9367.77ZM3705.1 9302.79C3705.03 9344.64 3695.61 9500.52 3689.29 9563.87C3677.09 9686.41 3660.05 9755.4 3619.65 9845.71C3598.1 9893.91 3596.52 9902.27 3609.06 9902.27C3624.92 9902.27 3681.32 9758.54 3694.36 9684.9C3709.84 9597.56 3723.04 9438.25 3723.04 9338.74C3723.04 9286.75 3722.55 9283.76 3714.09 9283.76C3706.54 9283.73 3705.14 9286.73 3705.1 9302.79ZM4525.64 9296.06C4573.74 9345.89 4560.84 9441.45 4494.2 9529.08C4440.54 9599.63 4384.28 9641.01 4305.48 9667.86C4274.82 9678.31 4249.02 9686.13 4248.13 9685.23C4245.78 9682.88 4284.81 9541.02 4303.71 9483.18C4330.14 9402.27 4360.27 9349.93 4399.28 9317.21C4427.27 9293.72 4459.56 9279.81 4486.82 9279.51C4507.21 9279.29 4511 9280.88 4525.64 9296.06ZM4437.05 9269.03C4385.49 9292.7 4340.67 9340.57 4311.99 9402.51C4305.15 9417.3 4291.7 9452.6 4282.12 9480.95C4272.54 9509.3 4265.63 9527.46 4266.75 9521.29C4267.89 9515.13 4270.21 9495.48 4271.93 9477.6C4274.87 9446.81 4274.56 9445.1 4265.85 9445.1C4254.69 9445.1 4255.82 9439.85 4237.86 9577.32C4227.05 9660.13 4220.4 9695.33 4208.92 9730.28C4176.32 9829.69 4165.59 9884.02 4175.05 9901.72C4192.78 9934.88 4219.59 9871.71 4233.77 9763.32C4236.84 9739.91 4239.85 9720.11 4240.46 9719.34C4243.67 9715.34 4338 9780.45 4394.67 9825.76C4495.66 9906.55 4550.8 9938.34 4638.85 9966.57C4709.27 9989.14 4749.34 9997.53 4755.81 9991.05C4765.36 9981.5 4757.36 9976.31 4719.45 9967.58C4699.74 9963.04 4660.69 9951.43 4632.67 9941.78C4545.83 9911.89 4509.61 9890.8 4415.32 9815.17C4378.15 9785.36 4329.1 9749.22 4306.3 9734.85C4283.53 9720.48 4264.94 9707.4 4265.01 9705.76C4265.08 9704.13 4286.75 9695.75 4313.15 9687.13C4372.24 9667.85 4423.6 9635.14 4469.06 9587.91C4535.25 9519.12 4564.93 9466.32 4573.53 9402.02C4577.63 9371.37 4577.11 9362.2 4569.58 9333.33C4562.38 9305.72 4557.59 9296.73 4541.64 9280.85C4523.9 9263.2 4520.09 9261.48 4493.26 9259.12C4467.81 9256.88 4460.84 9258.09 4437.05 9269.03ZM3111.11 9832.78C3116.1 9961.26 3104.27 10087.5 3080.79 10156.6C3052.66 10239.4 2994.92 10310.3 2951.48 10315.3C2936.37 10317.1 2933.32 10315.6 2922.49 10301.4C2910.72 10286 2910.4 10284 2910.84 10227.2C2911.91 10087.3 2982.62 9895.03 3074.33 9782.71C3093.65 9759.05 3102.88 9750.75 3105.11 9755C3106.88 9758.33 3109.59 9793.34 3111.11 9832.78ZM2970.33 9039.37C2912.42 9069.14 2821.2 9179.98 2732.35 9328.55C2632.47 9495.56 2606.97 9580.5 2636.58 9647.49C2646.64 9670.27 2648.76 9672.18 2671.66 9679.42C2695.9 9687.06 2696.18 9687.04 2724.43 9675.56C2740.16 9669.16 2767.32 9652.16 2785.29 9637.46C2832.41 9598.93 2933.83 9489.26 2983.93 9422.68C3010.96 9386.76 3033.65 9365.31 3042.23 9367.56C3058.24 9371.76 3076.61 9466.62 3098.28 9657.18L3105.34 9719.13L3074.03 9752.68C3033.7 9795.9 3012.54 9828.18 2977.44 9900C2915.39 10027 2879.78 10173.6 2889.64 10261.4C2892.71 10288.8 2896.34 10299.9 2907.68 10316.3C2921.56 10336.5 2922.4 10337 2945.8 10337C2966.98 10337 2972.74 10334.8 2995.95 10317.6C3057.46 10272.2 3096.27 10201.5 3119.43 10092.7C3128.06 10052.1 3129.05 10032.6 3129.68 9885.72L3130.4 9723.54L3154.67 9703.92C3223.81 9648.03 3291.75 9612.19 3355.84 9597.75C3394.85 9588.97 3396.15 9588.37 3396.15 9579.24C3396.15 9568.08 3386.14 9568.15 3340.69 9579.61C3282.6 9594.25 3212.46 9632.54 3135.89 9691.42L3124.19 9700.41L3118.87 9652.3C3109.57 9568.1 3091.47 9443.84 3084.14 9413.7C3073.08 9368.35 3065.41 9352.09 3053.64 9349.14C3047.88 9347.7 3040.2 9345.36 3036.55 9343.96C3027.1 9340.32 3001.32 9364.43 2969.42 9406.73C2923.26 9467.9 2875.81 9521.14 2813.7 9581.34C2766.57 9627.06 2748.23 9641.76 2725.66 9652C2699.85 9663.72 2695.51 9664.44 2679.72 9659.7C2630.67 9644.99 2636.19 9553.7 2693 9440.57C2735.94 9355.07 2819.88 9224.63 2879.41 9150.93C2957.33 9054.45 3029.54 9020.45 3039.84 9075.43C3049.23 9125.46 2980.23 9241.03 2877.81 9346.84C2852.54 9372.94 2831.87 9397.65 2831.87 9401.74C2831.87 9418.62 2850.47 9407.39 2888.11 9367.79C2949.03 9303.72 2997.38 9240.38 3031.54 9179.89C3047.2 9152.2 3066.33 9091.87 3062.8 9081.43C3061.64 9078.04 3058.55 9066.82 3055.9 9056.51C3051.37 9038.82 3049.74 9037.35 3027 9030.74C3013.75 9026.93 3002.2 9023.88 3001.36 9024C3000.5 9024.12 2986.55 9031.04 2970.33 9039.37Z" fill="white"/>
</g>
<line x1="1291" y1="10182" x2="7767" y2="10186" stroke="white" stroke-width="10"/>
<path d="M3017.5 10442.8C3038.69 10442.8 3054.15 10447 3063.88 10455.3C3073.69 10463.5 3078.59 10475.3 3078.59 10490.8C3078.59 10497.7 3077.43 10504.4 3075.11 10510.6C3072.87 10516.9 3069.2 10522.4 3064.11 10527.2C3059.01 10531.9 3052.31 10535.6 3044 10538.4C3035.77 10541.1 3025.66 10542.4 3013.68 10542.4H2993.69V10607H2974.6V10442.8H3017.5ZM3015.7 10459.1H2993.69V10526H3011.55C3022.03 10526 3030.75 10524.9 3037.71 10522.7C3044.75 10520.4 3050.03 10516.8 3053.55 10511.8C3057.07 10506.7 3058.83 10499.9 3058.83 10491.6C3058.83 10480.6 3055.35 10472.5 3048.38 10467.2C3041.42 10461.8 3030.53 10459.1 3015.7 10459.1ZM3166.08 10481.7C3168.55 10481.7 3171.13 10481.8 3173.83 10482.1C3176.52 10482.3 3178.92 10482.7 3181.01 10483.1L3178.66 10500.4C3176.63 10499.9 3174.39 10499.5 3171.92 10499.2C3169.45 10498.9 3167.13 10498.7 3164.96 10498.7C3160.01 10498.7 3155.33 10499.7 3150.92 10501.8C3146.57 10503.7 3142.76 10506.6 3139.46 10510.3C3136.17 10514 3133.58 10518.4 3131.71 10523.7C3129.84 10528.8 3128.91 10534.6 3128.91 10541V10607H3110.15V10483.9H3125.65L3127.67 10506.6H3128.46C3131 10502 3134.07 10497.9 3137.67 10494.1C3141.26 10490.3 3145.41 10487.3 3150.13 10485C3154.92 10482.8 3160.24 10481.7 3166.08 10481.7ZM3310.39 10545.2C3310.39 10555.3 3309.08 10564.4 3306.46 10572.3C3303.84 10580.2 3300.06 10586.9 3295.12 10592.4C3290.17 10597.9 3284.19 10602.1 3277.15 10605C3270.18 10607.8 3262.29 10609.2 3253.45 10609.2C3245.22 10609.2 3237.65 10607.8 3230.77 10605C3223.95 10602.1 3218.04 10597.9 3213.02 10592.4C3208.08 10586.9 3204.22 10580.2 3201.45 10572.3C3198.76 10564.4 3197.41 10555.3 3197.41 10545.2C3197.41 10531.8 3199.69 10520.3 3204.26 10510.9C3208.83 10501.4 3215.34 10494.1 3223.8 10489.2C3232.34 10484.2 3242.48 10481.7 3254.24 10481.7C3265.47 10481.7 3275.28 10484.2 3283.66 10489.2C3292.12 10494.2 3298.67 10501.5 3303.31 10511C3308.03 10520.4 3310.39 10531.8 3310.39 10545.2ZM3216.73 10545.2C3216.73 10555.1 3218.04 10563.7 3220.66 10571C3223.28 10578.2 3227.32 10583.8 3232.79 10587.8C3238.25 10591.8 3245.29 10593.7 3253.9 10593.7C3262.44 10593.7 3269.44 10591.8 3274.9 10587.8C3280.44 10583.8 3284.52 10578.2 3287.14 10571C3289.76 10563.7 3291.07 10555.1 3291.07 10545.2C3291.07 10535.4 3289.76 10527 3287.14 10519.9C3284.52 10512.7 3280.48 10507.1 3275.01 10503.2C3269.55 10499.3 3262.47 10497.4 3253.79 10497.4C3240.99 10497.4 3231.59 10501.6 3225.6 10510.1C3219.68 10518.5 3216.73 10530.3 3216.73 10545.2ZM3397.43 10498.5H3366.77V10607H3348.12V10498.5H3326.34V10489.5L3348.12 10483.4V10475.2C3348.12 10464.8 3349.66 10456.4 3352.73 10450C3355.8 10443.5 3360.25 10438.7 3366.09 10435.6C3371.93 10432.6 3379.05 10431 3387.43 10431C3392.15 10431 3396.45 10431.4 3400.35 10432.3C3404.31 10433.1 3407.8 10434 3410.79 10435.1L3405.96 10449.8C3403.42 10448.9 3400.53 10448.2 3397.31 10447.5C3394.17 10446.8 3390.95 10446.4 3387.66 10446.4C3380.54 10446.4 3375.26 10448.7 3371.82 10453.4C3368.45 10457.9 3366.77 10465.1 3366.77 10474.9V10483.9H3397.43V10498.5ZM3417.3 10595.3C3417.3 10590.1 3418.58 10586.4 3421.12 10584.2C3423.67 10582 3426.77 10580.8 3430.44 10580.8C3434.26 10580.8 3437.48 10582 3440.1 10584.2C3442.72 10586.4 3444.03 10590.1 3444.03 10595.3C3444.03 10600.5 3442.72 10604.3 3440.1 10606.7C3437.48 10609 3434.26 10610.1 3430.44 10610.1C3426.77 10610.1 3423.67 10609 3421.12 10606.7C3418.58 10604.3 3417.3 10600.5 3417.3 10595.3ZM3673.47 10523.3C3673.47 10541.8 3670.1 10557.3 3663.36 10569.7C3656.62 10582.1 3646.85 10591.4 3634.05 10597.7C3621.32 10603.9 3605.86 10607 3587.67 10607H3543.08V10442.8H3592.61C3609.31 10442.8 3623.68 10445.9 3635.74 10452C3647.79 10458.1 3657.07 10467.1 3663.59 10479.1C3670.18 10491 3673.47 10505.7 3673.47 10523.3ZM3653.37 10524C3653.37 10509.3 3650.9 10497.1 3645.96 10487.5C3641.09 10477.9 3633.9 10470.8 3624.39 10466.2C3614.96 10461.5 3603.39 10459.1 3589.69 10459.1H3562.18V10590.6H3585.42C3608.03 10590.6 3624.99 10585 3636.3 10573.9C3647.68 10562.7 3653.37 10546.1 3653.37 10524ZM3763.09 10481.7C3765.56 10481.7 3768.14 10481.8 3770.84 10482.1C3773.53 10482.3 3775.93 10482.7 3778.03 10483.1L3775.67 10500.4C3773.65 10499.9 3771.4 10499.5 3768.93 10499.2C3766.46 10498.9 3764.14 10498.7 3761.97 10498.7C3757.03 10498.7 3752.35 10499.7 3747.93 10501.8C3743.59 10503.7 3739.77 10506.6 3736.47 10510.3C3733.18 10514 3730.6 10518.4 3728.72 10523.7C3726.85 10528.8 3725.92 10534.6 3725.92 10541V10607H3707.16V10483.9H3722.66L3724.68 10506.6H3725.47C3728.01 10502 3731.08 10497.9 3734.68 10494.1C3738.27 10490.3 3742.43 10487.3 3747.14 10485C3751.93 10482.8 3757.25 10481.7 3763.09 10481.7ZM3798.47 10595.3C3798.47 10590.1 3799.74 10586.4 3802.28 10584.2C3804.83 10582 3807.94 10580.8 3811.61 10580.8C3815.42 10580.8 3818.64 10582 3821.26 10584.2C3823.88 10586.4 3825.19 10590.1 3825.19 10595.3C3825.19 10600.5 3823.88 10604.3 3821.26 10606.7C3818.64 10609 3815.42 10610.1 3811.61 10610.1C3807.94 10610.1 3804.83 10609 3802.28 10606.7C3799.74 10604.3 3798.47 10600.5 3798.47 10595.3ZM3994.44 10521H4051.83V10600.6C4043.22 10603.5 4034.34 10605.7 4025.21 10607.1C4016.15 10608.5 4006 10609.2 3994.77 10609.2C3977.7 10609.2 3963.29 10605.8 3951.54 10599C3939.86 10592.2 3930.99 10582.5 3924.92 10569.9C3918.86 10557.3 3915.82 10542.3 3915.82 10524.9C3915.82 10507.9 3919.16 10493.1 3925.82 10480.4C3932.56 10467.8 3942.25 10458 3954.91 10451C3967.63 10444 3982.91 10440.5 4000.73 10440.5C4009.86 10440.5 4018.51 10441.3 4026.67 10443C4034.9 10444.7 4042.54 10447 4049.58 10450.1L4042.28 10466.7C4036.21 10464.1 4029.51 10461.9 4022.18 10460C4014.91 10458.1 4007.39 10457.2 3999.6 10457.2C3986.2 10457.2 3974.71 10460 3965.13 10465.5C3955.62 10471 3948.32 10478.9 3943.23 10489C3938.21 10499.1 3935.7 10511.1 3935.7 10524.9C3935.7 10538.6 3937.91 10550.5 3942.33 10560.7C3946.75 10570.8 3953.63 10578.7 3962.99 10584.3C3972.35 10589.9 3984.4 10592.7 3999.15 10592.7C4006.57 10592.7 4012.93 10592.3 4018.25 10591.5C4023.56 10590.6 4028.39 10589.6 4032.73 10588.4V10538H3994.44V10521ZM4190.41 10483.9V10607H4175.14L4172.44 10589.7H4171.43C4168.88 10594 4165.59 10597.6 4161.55 10600.5C4157.5 10603.4 4152.94 10605.6 4147.85 10607C4142.83 10608.5 4137.48 10609.2 4131.79 10609.2C4122.05 10609.2 4113.89 10607.7 4107.3 10604.5C4100.72 10601.4 4095.74 10596.5 4092.37 10589.9C4089.07 10583.3 4087.43 10574.9 4087.43 10564.5V10483.9H4106.29V10563.2C4106.29 10573.5 4108.61 10581.1 4113.26 10586.2C4117.9 10591.2 4124.97 10593.7 4134.48 10593.7C4143.62 10593.7 4150.88 10592 4156.27 10588.6C4161.73 10585.1 4165.66 10580.1 4168.06 10573.4C4170.46 10566.7 4171.65 10558.4 4171.65 10548.7V10483.9H4190.41ZM4248.47 10483.9V10607H4229.83V10483.9H4248.47ZM4239.37 10437.9C4242.44 10437.9 4245.06 10438.9 4247.24 10440.9C4249.48 10442.8 4250.6 10445.9 4250.6 10450.1C4250.6 10454.2 4249.48 10457.3 4247.24 10459.3C4245.06 10461.3 4242.44 10462.4 4239.37 10462.4C4236.15 10462.4 4233.46 10461.3 4231.29 10459.3C4229.19 10457.3 4228.14 10454.2 4228.14 10450.1C4228.14 10445.9 4229.19 10442.8 4231.29 10440.9C4233.46 10438.9 4236.15 10437.9 4239.37 10437.9ZM4306.76 10607H4288V10432.3H4306.76V10607ZM4364.82 10432.3V10484.5C4364.82 10487.5 4364.74 10490.5 4364.59 10493.6C4364.44 10496.6 4364.18 10499.3 4363.81 10501.9H4365.04C4367.59 10497.5 4370.81 10493.9 4374.7 10491C4378.67 10488 4383.16 10485.7 4388.18 10484.3C4393.19 10482.7 4398.51 10481.9 4404.12 10481.9C4414.01 10481.9 4422.24 10483.5 4428.83 10486.6C4435.5 10489.8 4440.47 10494.6 4443.77 10501.2C4447.14 10507.8 4448.82 10516.3 4448.82 10526.8V10607H4430.4V10528C4430.4 10517.8 4428.05 10510.1 4423.33 10505C4418.69 10499.9 4411.54 10497.4 4401.88 10497.4C4392.74 10497.4 4385.44 10499.2 4379.98 10502.7C4374.59 10506.1 4370.7 10511.2 4368.3 10517.9C4365.98 10524.7 4364.82 10532.9 4364.82 10542.6V10607H4346.18V10432.3H4364.82ZM4534.62 10481.7C4545.1 10481.7 4554.09 10484 4561.58 10488.6C4569.06 10493.3 4574.79 10499.8 4578.76 10508.2C4582.73 10516.5 4584.71 10526.2 4584.71 10537.4V10548.9H4499.7C4499.92 10563.4 4503.51 10574.4 4510.48 10582C4517.44 10589.5 4527.25 10593.3 4539.9 10593.3C4547.69 10593.3 4554.58 10592.6 4560.57 10591.2C4566.56 10589.7 4572.77 10587.6 4579.21 10584.9V10601.3C4572.99 10604 4566.82 10606.1 4560.68 10607.3C4554.61 10608.6 4547.43 10609.2 4539.12 10609.2C4527.29 10609.2 4516.95 10606.9 4508.12 10602.1C4499.36 10597.2 4492.55 10590.1 4487.68 10580.7C4482.81 10571.4 4480.38 10559.9 4480.38 10546.4C4480.38 10533.1 4482.59 10521.6 4487.01 10512C4491.5 10502.3 4497.79 10494.8 4505.87 10489.5C4514.03 10484.3 4523.62 10481.7 4534.62 10481.7ZM4534.4 10496.9C4524.44 10496.9 4516.5 10500.2 4510.59 10506.7C4504.68 10513.2 4501.16 10522.3 4500.03 10534H4565.17C4565.1 10526.7 4563.93 10520.2 4561.69 10514.7C4559.52 10509.1 4556.19 10504.7 4551.69 10501.7C4547.2 10498.5 4541.44 10496.9 4534.4 10496.9ZM4672.31 10481.7C4674.78 10481.7 4677.36 10481.8 4680.06 10482.1C4682.75 10482.3 4685.15 10482.7 4687.25 10483.1L4684.89 10500.4C4682.87 10499.9 4680.62 10499.5 4678.15 10499.2C4675.68 10498.9 4673.36 10498.7 4671.19 10498.7C4666.24 10498.7 4661.56 10499.7 4657.15 10501.8C4652.81 10503.7 4648.99 10506.6 4645.69 10510.3C4642.4 10514 4639.82 10518.4 4637.94 10523.7C4636.07 10528.8 4635.14 10534.6 4635.14 10541V10607H4616.38V10483.9H4631.88L4633.9 10506.6H4634.69C4637.23 10502 4640.3 10497.9 4643.9 10494.1C4647.49 10490.3 4651.64 10487.3 4656.36 10485C4661.15 10482.8 4666.47 10481.7 4672.31 10481.7ZM4844.13 10481.7C4857.69 10481.7 4867.91 10485.2 4874.79 10492.3C4881.68 10499.4 4885.13 10510.7 4885.13 10526.4V10607H4866.71V10527.3C4866.71 10517.3 4864.54 10509.9 4860.19 10504.9C4855.93 10499.9 4849.56 10497.4 4841.1 10497.4C4829.2 10497.4 4820.55 10500.8 4815.16 10507.7C4809.77 10514.6 4807.07 10524.8 4807.07 10538.2V10607H4788.54V10527.3C4788.54 10520.6 4787.57 10515.1 4785.62 10510.6C4783.75 10506.2 4780.91 10502.9 4777.09 10500.8C4773.35 10498.5 4768.59 10497.4 4762.83 10497.4C4754.67 10497.4 4748.11 10499.1 4743.17 10502.4C4738.23 10505.8 4734.64 10510.8 4732.39 10517.5C4730.22 10524.1 4729.13 10532.2 4729.13 10541.9V10607H4710.49V10483.9H4725.54L4728.35 10501.3H4729.36C4731.83 10497.1 4734.94 10493.5 4738.68 10490.5C4742.42 10487.6 4746.62 10485.4 4751.26 10483.9C4755.9 10482.4 4760.84 10481.7 4766.08 10481.7C4775.44 10481.7 4783.27 10483.4 4789.55 10486.9C4795.92 10490.4 4800.52 10495.7 4803.37 10502.8H4804.38C4808.42 10495.7 4813.96 10490.4 4821 10486.9C4828.04 10483.4 4835.75 10481.7 4844.13 10481.7ZM4970.81 10481.7C4981.3 10481.7 4990.28 10484 4997.77 10488.6C5005.25 10493.3 5010.98 10499.8 5014.95 10508.2C5018.92 10516.5 5020.9 10526.2 5020.9 10537.4V10548.9H4935.89C4936.11 10563.4 4939.71 10574.4 4946.67 10582C4953.63 10589.5 4963.44 10593.3 4976.09 10593.3C4983.88 10593.3 4990.77 10592.6 4996.76 10591.2C5002.75 10589.7 5008.96 10587.6 5015.4 10584.9V10601.3C5009.19 10604 5003.01 10606.1 4996.87 10607.3C4990.8 10608.6 4983.62 10609.2 4975.31 10609.2C4963.48 10609.2 4953.15 10606.9 4944.31 10602.1C4935.55 10597.2 4928.74 10590.1 4923.87 10580.7C4919 10571.4 4916.57 10559.9 4916.57 10546.4C4916.57 10533.1 4918.78 10521.6 4923.2 10512C4927.69 10502.3 4933.98 10494.8 4942.06 10489.5C4950.23 10484.3 4959.81 10481.7 4970.81 10481.7ZM4970.59 10496.9C4960.63 10496.9 4952.7 10500.2 4946.78 10506.7C4940.87 10513.2 4937.35 10522.3 4936.22 10534H5001.36C5001.29 10526.7 5000.13 10520.2 4997.88 10514.7C4995.71 10509.1 4992.38 10504.7 4987.88 10501.7C4983.39 10498.5 4977.63 10496.9 4970.59 10496.9ZM5159.49 10442.8C5172.96 10442.8 5184.08 10444.5 5192.84 10447.9C5201.68 10451.2 5208.26 10456.2 5212.61 10463C5216.95 10469.8 5219.12 10478.5 5219.12 10489.1C5219.12 10497.8 5217.55 10505 5214.4 10510.9C5211.26 10516.6 5207.14 10521.3 5202.05 10524.9C5196.96 10528.5 5191.53 10531.3 5185.77 10533.2L5230.8 10607H5208.56L5168.36 10538.5H5134.22V10607H5115.13V10442.8H5159.49ZM5158.36 10459.3H5134.22V10522.3H5160.27C5173.67 10522.3 5183.52 10519.6 5189.81 10514.1C5196.17 10508.7 5199.35 10500.6 5199.35 10490C5199.35 10478.8 5195.99 10470.9 5189.25 10466.3C5182.58 10461.6 5172.29 10459.3 5158.36 10459.3ZM5300.32 10481.9C5314.99 10481.9 5325.88 10485.2 5333 10491.8C5340.11 10498.4 5343.67 10508.9 5343.67 10523.3V10607H5330.08L5326.48 10588.8H5325.58C5322.14 10593.3 5318.55 10597.1 5314.8 10600.1C5311.06 10603.1 5306.72 10605.4 5301.78 10607C5296.91 10608.5 5290.92 10609.2 5283.81 10609.2C5276.32 10609.2 5269.66 10607.9 5263.82 10605.3C5258.05 10602.7 5253.49 10598.7 5250.12 10593.4C5246.82 10588.1 5245.17 10581.4 5245.17 10573.2C5245.17 10560.9 5250.04 10551.5 5259.77 10544.9C5269.51 10538.3 5284.33 10534.7 5304.25 10534.1L5325.47 10533.2V10525.7C5325.47 10515.1 5323.19 10507.6 5318.62 10503.3C5314.06 10499.1 5307.62 10496.9 5299.31 10496.9C5292.87 10496.9 5286.73 10497.9 5280.89 10499.7C5275.05 10501.6 5269.51 10503.8 5264.27 10506.4L5258.54 10492.2C5264.08 10489.4 5270.44 10486.9 5277.63 10484.9C5284.82 10482.9 5292.38 10481.9 5300.32 10481.9ZM5325.25 10546.4L5306.49 10547.1C5291.14 10547.7 5280.33 10550.2 5274.04 10554.7C5267.75 10559.1 5264.6 10565.3 5264.6 10573.4C5264.6 10580.5 5266.74 10585.7 5271 10589C5275.27 10592.4 5280.93 10594.1 5287.96 10594.1C5298.89 10594.1 5307.84 10591.1 5314.8 10585C5321.77 10578.9 5325.25 10569.8 5325.25 10557.7V10546.4ZM5440.36 10481.7C5454.96 10481.7 5466 10485.3 5473.49 10492.4C5480.98 10499.6 5484.72 10511 5484.72 10526.8V10607H5466.3V10528C5466.3 10517.8 5463.94 10510.1 5459.23 10505C5454.59 10499.9 5447.44 10497.4 5437.78 10497.4C5424.15 10497.4 5414.57 10501.2 5409.03 10509C5403.49 10516.7 5400.72 10527.9 5400.72 10542.5V10607H5382.07V10483.9H5397.12L5399.93 10501.7H5400.94C5403.56 10497.3 5406.89 10493.7 5410.94 10490.8C5414.98 10487.8 5419.51 10485.5 5424.53 10484C5429.54 10482.5 5434.82 10481.7 5440.36 10481.7ZM5629.26 10545.2C5629.26 10555.3 5627.95 10564.4 5625.33 10572.3C5622.71 10580.2 5618.92 10586.9 5613.98 10592.4C5609.04 10597.9 5603.05 10602.1 5596.01 10605C5589.05 10607.8 5581.15 10609.2 5572.32 10609.2C5564.08 10609.2 5556.52 10607.8 5549.63 10605C5542.82 10602.1 5536.9 10597.9 5531.89 10592.4C5526.95 10586.9 5523.09 10580.2 5520.32 10572.3C5517.63 10564.4 5516.28 10555.3 5516.28 10545.2C5516.28 10531.8 5518.56 10520.3 5523.13 10510.9C5527.7 10501.4 5534.21 10494.1 5542.67 10489.2C5551.21 10484.2 5561.35 10481.7 5573.1 10481.7C5584.33 10481.7 5594.14 10484.2 5602.53 10489.2C5610.99 10494.2 5617.54 10501.5 5622.18 10511C5626.9 10520.4 5629.26 10531.8 5629.26 10545.2ZM5535.59 10545.2C5535.59 10555.1 5536.9 10563.7 5539.53 10571C5542.15 10578.2 5546.19 10583.8 5551.65 10587.8C5557.12 10591.8 5564.16 10593.7 5572.77 10593.7C5581.3 10593.7 5588.3 10591.8 5593.77 10587.8C5599.31 10583.8 5603.39 10578.2 5606.01 10571C5608.63 10563.7 5609.94 10555.1 5609.94 10545.2C5609.94 10535.4 5608.63 10527 5606.01 10519.9C5603.39 10512.7 5599.35 10507.1 5593.88 10503.2C5588.42 10499.3 5581.34 10497.4 5572.66 10497.4C5559.85 10497.4 5550.46 10501.6 5544.47 10510.1C5538.55 10518.5 5535.59 10530.3 5535.59 10545.2ZM5642.06 10483.9H5662.05L5689.23 10555.3C5690.8 10559.5 5692.26 10563.6 5693.61 10567.5C5694.96 10571.3 5696.15 10575 5697.2 10578.5C5698.25 10582 5699.07 10585.4 5699.67 10588.7H5700.46C5701.51 10585 5703 10580 5704.95 10574C5706.9 10567.8 5708.99 10561.6 5711.24 10555.2L5736.96 10483.9H5757.06L5703.49 10625.1C5700.65 10632.6 5697.31 10639.2 5693.5 10644.8C5689.75 10650.5 5685.18 10654.8 5679.79 10657.8C5674.4 10660.8 5667.89 10662.4 5660.25 10662.4C5656.73 10662.4 5653.63 10662.1 5650.93 10661.7C5648.24 10661.3 5645.92 10660.9 5643.97 10660.3V10645.4C5645.62 10645.8 5647.6 10646.1 5649.92 10646.4C5652.32 10646.7 5654.79 10646.9 5657.33 10646.9C5661.97 10646.9 5665.98 10646 5669.35 10644.2C5672.79 10642.5 5675.75 10639.9 5678.22 10636.5C5680.69 10633.2 5682.83 10629.2 5684.62 10624.5L5691.36 10607.2L5642.06 10483.9ZM5822.76 10481.9C5837.43 10481.9 5848.33 10485.2 5855.44 10491.8C5862.55 10498.4 5866.11 10508.9 5866.11 10523.3V10607H5852.52L5848.92 10588.8H5848.03C5844.58 10593.3 5840.99 10597.1 5837.25 10600.1C5833.5 10603.1 5829.16 10605.4 5824.22 10607C5819.35 10608.5 5813.36 10609.2 5806.25 10609.2C5798.76 10609.2 5792.1 10607.9 5786.26 10605.3C5780.49 10602.7 5775.93 10598.7 5772.56 10593.4C5769.26 10588.1 5767.62 10581.4 5767.62 10573.2C5767.62 10560.9 5772.48 10551.5 5782.22 10544.9C5791.95 10538.3 5806.77 10534.7 5826.69 10534.1L5847.91 10533.2V10525.7C5847.91 10515.1 5845.63 10507.6 5841.06 10503.3C5836.5 10499.1 5830.06 10496.9 5821.75 10496.9C5815.31 10496.9 5809.17 10497.9 5803.33 10499.7C5797.49 10501.6 5791.95 10503.8 5786.71 10506.4L5780.98 10492.2C5786.52 10489.4 5792.88 10486.9 5800.07 10484.9C5807.26 10482.9 5814.82 10481.9 5822.76 10481.9ZM5847.69 10546.4L5828.93 10547.1C5813.59 10547.7 5802.77 10550.2 5796.48 10554.7C5790.19 10559.1 5787.04 10565.3 5787.04 10573.4C5787.04 10580.5 5789.18 10585.7 5793.45 10589C5797.71 10592.4 5803.37 10594.1 5810.4 10594.1C5821.34 10594.1 5830.28 10591.1 5837.25 10585C5844.21 10578.9 5847.69 10569.8 5847.69 10557.7V10546.4ZM1322.6 10858.2C1322.6 10868.3 1321.29 10877.4 1318.67 10885.3C1316.05 10893.2 1312.26 10899.9 1307.32 10905.4C1302.38 10910.9 1296.39 10915.1 1289.35 10918C1282.39 10920.8 1274.49 10922.2 1265.66 10922.2C1257.42 10922.2 1249.86 10920.8 1242.97 10918C1236.16 10915.1 1230.24 10910.9 1225.23 10905.4C1220.29 10899.9 1216.43 10893.2 1213.66 10885.3C1210.97 10877.4 1209.62 10868.3 1209.62 10858.2C1209.62 10844.8 1211.9 10833.3 1216.47 10823.9C1221.04 10814.4 1227.55 10807.1 1236.01 10802.2C1244.54 10797.2 1254.69 10794.7 1266.44 10794.7C1277.67 10794.7 1287.48 10797.2 1295.87 10802.2C1304.33 10807.2 1310.88 10814.5 1315.52 10824C1320.24 10833.4 1322.6 10844.8 1322.6 10858.2ZM1228.93 10858.2C1228.93 10868.1 1230.24 10876.7 1232.87 10884C1235.49 10891.2 1239.53 10896.8 1244.99 10900.8C1250.46 10904.8 1257.5 10906.7 1266.11 10906.7C1274.64 10906.7 1281.64 10904.8 1287.11 10900.8C1292.65 10896.8 1296.73 10891.2 1299.35 10884C1301.97 10876.7 1303.28 10868.1 1303.28 10858.2C1303.28 10848.4 1301.97 10840 1299.35 10832.9C1296.73 10825.7 1292.69 10820.1 1287.22 10816.2C1281.76 10812.3 1274.68 10810.4 1266 10810.4C1253.19 10810.4 1243.8 10814.6 1237.81 10823.1C1231.89 10831.5 1228.93 10843.3 1228.93 10858.2ZM1410.76 10794.7C1413.23 10794.7 1415.81 10794.8 1418.5 10795.1C1421.2 10795.3 1423.6 10795.7 1425.69 10796.1L1423.33 10813.4C1421.31 10812.9 1419.07 10812.5 1416.6 10812.2C1414.12 10811.9 1411.8 10811.7 1409.63 10811.7C1404.69 10811.7 1400.01 10812.7 1395.59 10814.8C1391.25 10816.7 1387.43 10819.6 1384.14 10823.3C1380.85 10827 1378.26 10831.4 1376.39 10836.7C1374.52 10841.8 1373.58 10847.6 1373.58 10854V10920H1354.83V10796.9H1370.33L1372.35 10819.6H1373.13C1375.68 10815 1378.75 10810.9 1382.34 10807.1C1385.94 10803.3 1390.09 10800.3 1394.81 10798C1399.6 10795.8 1404.92 10794.7 1410.76 10794.7ZM1483.3 10975.3C1467.13 10975.3 1454.67 10972.2 1445.91 10966.2C1437.15 10960.2 1432.77 10951.7 1432.77 10940.9C1432.77 10933.2 1435.2 10926.6 1440.07 10921.1C1445.01 10915.7 1451.82 10912 1460.51 10910.2C1457.29 10908.7 1454.52 10906.5 1452.2 10903.5C1449.95 10900.5 1448.83 10897.1 1448.83 10893.2C1448.83 10888.7 1450.06 10884.7 1452.53 10881.4C1455.08 10877.9 1458.93 10874.6 1464.1 10871.5C1457.66 10868.9 1452.42 10864.4 1448.38 10858.2C1444.41 10851.9 1442.43 10844.6 1442.43 10836.3C1442.43 10827.5 1444.26 10820 1447.93 10813.8C1451.6 10807.5 1456.91 10802.7 1463.88 10799.4C1470.84 10796.1 1479.26 10794.4 1489.14 10794.4C1491.32 10794.4 1493.49 10794.6 1495.66 10794.8C1497.9 10794.9 1500.04 10795.2 1502.06 10795.6C1504.08 10795.9 1505.84 10796.2 1507.34 10796.7H1549.56V10808.7L1526.88 10811.5C1529.12 10814.4 1531 10818 1532.49 10822.1C1533.99 10826.2 1534.74 10830.8 1534.74 10835.8C1534.74 10848.1 1530.58 10857.8 1522.27 10865.1C1513.96 10872.3 1502.55 10875.9 1488.02 10875.9C1484.58 10875.9 1481.06 10875.6 1477.46 10875C1473.8 10877 1470.99 10879.2 1469.04 10881.7C1467.17 10884.2 1466.23 10887 1466.23 10890.2C1466.23 10892.6 1466.95 10894.5 1468.37 10896C1469.87 10897.4 1472 10898.4 1474.77 10899.1C1477.54 10899.7 1480.87 10900 1484.76 10900H1506.44C1519.84 10900 1530.1 10902.8 1537.21 10908.4C1544.4 10914 1547.99 10922.2 1547.99 10933C1547.99 10946.7 1542.45 10957.1 1531.37 10964.4C1520.29 10971.6 1504.27 10975.3 1483.3 10975.3ZM1483.87 10960.7C1494.05 10960.7 1502.47 10959.6 1509.13 10957.5C1515.87 10955.5 1520.89 10952.5 1524.18 10948.6C1527.55 10944.8 1529.24 10940.3 1529.24 10934.9C1529.24 10930 1528.11 10926.3 1525.87 10923.7C1523.62 10921.2 1520.33 10919.6 1515.99 10918.8C1511.64 10917.9 1506.33 10917.4 1500.04 10917.4H1478.7C1473.16 10917.4 1468.33 10918.3 1464.21 10920C1460.1 10921.7 1456.91 10924.3 1454.67 10927.6C1452.5 10931 1451.41 10935.2 1451.41 10940.2C1451.41 10946.9 1454.22 10951.9 1459.83 10955.4C1465.45 10958.9 1473.46 10960.7 1483.87 10960.7ZM1488.7 10862.3C1497.6 10862.3 1504.31 10860 1508.8 10855.5C1513.29 10851 1515.54 10844.5 1515.54 10835.9C1515.54 10826.7 1513.25 10819.8 1508.69 10815.2C1504.12 10810.6 1497.38 10808.3 1488.47 10808.3C1479.94 10808.3 1473.35 10810.7 1468.71 10815.4C1464.14 10820.2 1461.85 10827.1 1461.85 10836.2C1461.85 10844.6 1464.18 10851 1468.82 10855.5C1473.46 10860 1480.09 10862.3 1488.7 10862.3ZM1619.87 10794.9C1634.54 10794.9 1645.44 10798.2 1652.55 10804.8C1659.66 10811.4 1663.22 10821.9 1663.22 10836.3V10920H1649.63L1646.03 10901.8H1645.14C1641.69 10906.3 1638.1 10910.1 1634.35 10913.1C1630.61 10916.1 1626.27 10918.4 1621.33 10920C1616.46 10921.5 1610.47 10922.2 1603.36 10922.2C1595.87 10922.2 1589.21 10920.9 1583.37 10918.3C1577.6 10915.7 1573.04 10911.7 1569.67 10906.4C1566.37 10901.1 1564.73 10894.4 1564.73 10886.2C1564.73 10873.9 1569.59 10864.5 1579.33 10857.9C1589.06 10851.3 1603.88 10847.7 1623.8 10847.1L1645.02 10846.2V10838.7C1645.02 10828.1 1642.74 10820.6 1638.17 10816.3C1633.61 10812.1 1627.17 10809.9 1618.86 10809.9C1612.42 10809.9 1606.28 10810.9 1600.44 10812.7C1594.6 10814.6 1589.06 10816.8 1583.82 10819.4L1578.09 10805.2C1583.63 10802.4 1589.99 10799.9 1597.18 10797.9C1604.37 10795.9 1611.93 10794.9 1619.87 10794.9ZM1644.8 10859.4L1626.04 10860.1C1610.7 10860.7 1599.88 10863.2 1593.59 10867.7C1587.3 10872.1 1584.15 10878.3 1584.15 10886.4C1584.15 10893.5 1586.29 10898.7 1590.56 10902C1594.82 10905.4 1600.48 10907.1 1607.51 10907.1C1618.44 10907.1 1627.39 10904.1 1634.35 10898C1641.32 10891.9 1644.8 10882.8 1644.8 10870.7V10859.4ZM1759.91 10794.7C1774.51 10794.7 1785.55 10798.3 1793.04 10805.4C1800.53 10812.6 1804.27 10824 1804.27 10839.8V10920H1785.85V10841C1785.85 10830.8 1783.5 10823.1 1778.78 10818C1774.14 10812.9 1766.99 10810.4 1757.33 10810.4C1743.7 10810.4 1734.12 10814.2 1728.58 10822C1723.04 10829.7 1720.27 10840.9 1720.27 10855.5V10920H1701.62V10796.9H1716.67L1719.48 10814.7H1720.49C1723.11 10810.3 1726.44 10806.7 1730.49 10803.8C1734.53 10800.8 1739.06 10798.5 1744.08 10797C1749.09 10795.5 1754.37 10794.7 1759.91 10794.7ZM1861.32 10796.9V10920H1842.68V10796.9H1861.32ZM1852.23 10750.9C1855.3 10750.9 1857.92 10751.9 1860.09 10753.9C1862.33 10755.8 1863.46 10758.9 1863.46 10763.1C1863.46 10767.2 1862.33 10770.3 1860.09 10772.3C1857.92 10774.3 1855.3 10775.4 1852.23 10775.4C1849.01 10775.4 1846.31 10774.3 1844.14 10772.3C1842.04 10770.3 1841 10767.2 1841 10763.1C1841 10758.9 1842.04 10755.8 1844.14 10753.9C1846.31 10751.9 1849.01 10750.9 1852.23 10750.9ZM1979.92 10920H1890.18V10907.6L1957.68 10811.5H1894.45V10796.9H1978.46V10810.7L1911.86 10905.5H1979.92V10920ZM2054.71 10794.9C2069.39 10794.9 2080.28 10798.2 2087.39 10804.8C2094.5 10811.4 2098.06 10821.9 2098.06 10836.3V10920H2084.47L2080.88 10901.8H2079.98C2076.54 10906.3 2072.94 10910.1 2069.2 10913.1C2065.45 10916.1 2061.11 10918.4 2056.17 10920C2051.3 10921.5 2045.31 10922.2 2038.2 10922.2C2030.72 10922.2 2024.05 10920.9 2018.21 10918.3C2012.45 10915.7 2007.88 10911.7 2004.51 10906.4C2001.22 10901.1 1999.57 10894.4 1999.57 10886.2C1999.57 10873.9 2004.44 10864.5 2014.17 10857.9C2023.9 10851.3 2038.73 10847.7 2058.64 10847.1L2079.87 10846.2V10838.7C2079.87 10828.1 2077.58 10820.6 2073.02 10816.3C2068.45 10812.1 2062.01 10809.9 2053.7 10809.9C2047.26 10809.9 2041.12 10810.9 2035.28 10812.7C2029.44 10814.6 2023.9 10816.8 2018.66 10819.4L2012.93 10805.2C2018.47 10802.4 2024.84 10799.9 2032.03 10797.9C2039.21 10795.9 2046.77 10794.9 2054.71 10794.9ZM2079.64 10859.4L2060.89 10860.1C2045.54 10860.7 2034.72 10863.2 2028.43 10867.7C2022.14 10872.1 2019 10878.3 2019 10886.4C2019 10893.5 2021.13 10898.7 2025.4 10902C2029.67 10905.4 2035.32 10907.1 2042.36 10907.1C2053.29 10907.1 2062.24 10904.1 2069.2 10898C2076.16 10891.9 2079.64 10882.8 2079.64 10870.7V10859.4ZM2180.27 10922.2C2164.69 10922.2 2152.34 10916.9 2143.21 10906.3C2134.15 10895.7 2129.62 10879.9 2129.62 10858.9C2129.62 10837.7 2134.26 10821.7 2143.54 10811C2152.83 10800.1 2165.18 10794.7 2180.6 10794.7C2187.12 10794.7 2192.81 10795.5 2197.67 10797.3C2202.54 10799 2206.73 10801.3 2210.25 10804.2C2213.77 10807.1 2216.73 10810.3 2219.12 10814H2220.47C2220.17 10811.7 2219.87 10808.5 2219.57 10804.4C2219.27 10800.4 2219.12 10797.1 2219.12 10794.6V10745.3H2237.77V10920H2222.72L2219.91 10902.5H2219.12C2216.8 10906.1 2213.85 10909.5 2210.25 10912.5C2206.73 10915.5 2202.5 10917.9 2197.56 10919.7C2192.7 10921.4 2186.93 10922.2 2180.27 10922.2ZM2183.19 10906.7C2196.36 10906.7 2205.69 10903 2211.15 10895.5C2216.62 10888 2219.35 10876.9 2219.35 10862.2V10858.8C2219.35 10843.1 2216.73 10831.1 2211.49 10822.7C2206.32 10814.4 2196.89 10810.2 2183.19 10810.2C2171.73 10810.2 2163.16 10814.6 2157.47 10823.4C2151.78 10832.2 2148.93 10844.2 2148.93 10859.4C2148.93 10874.5 2151.74 10886.2 2157.36 10894.4C2163.05 10902.6 2171.66 10906.7 2183.19 10906.7ZM2383.43 10858.2C2383.43 10868.3 2382.12 10877.4 2379.5 10885.3C2376.88 10893.2 2373.09 10899.9 2368.15 10905.4C2363.21 10910.9 2357.22 10915.1 2350.18 10918C2343.22 10920.8 2335.32 10922.2 2326.49 10922.2C2318.25 10922.2 2310.69 10920.8 2303.8 10918C2296.99 10915.1 2291.07 10910.9 2286.06 10905.4C2281.12 10899.9 2277.26 10893.2 2274.49 10885.3C2271.8 10877.4 2270.45 10868.3 2270.45 10858.2C2270.45 10844.8 2272.73 10833.3 2277.3 10823.9C2281.87 10814.4 2288.38 10807.1 2296.84 10802.2C2305.38 10797.2 2315.52 10794.7 2327.27 10794.7C2338.5 10794.7 2348.31 10797.2 2356.7 10802.2C2365.16 10807.2 2371.71 10814.5 2376.35 10824C2381.07 10833.4 2383.43 10844.8 2383.43 10858.2ZM2289.76 10858.2C2289.76 10868.1 2291.07 10876.7 2293.7 10884C2296.32 10891.2 2300.36 10896.8 2305.82 10900.8C2311.29 10904.8 2318.33 10906.7 2326.94 10906.7C2335.47 10906.7 2342.47 10904.8 2347.94 10900.8C2353.48 10896.8 2357.56 10891.2 2360.18 10884C2362.8 10876.7 2364.11 10868.1 2364.11 10858.2C2364.11 10848.4 2362.8 10840 2360.18 10832.9C2357.56 10825.7 2353.52 10820.1 2348.05 10816.2C2342.59 10812.3 2335.51 10810.4 2326.83 10810.4C2314.02 10810.4 2304.63 10814.6 2298.64 10823.1C2292.72 10831.5 2289.76 10843.3 2289.76 10858.2ZM2471.59 10794.7C2474.06 10794.7 2476.64 10794.8 2479.33 10795.1C2482.03 10795.3 2484.43 10795.7 2486.52 10796.1L2484.16 10813.4C2482.14 10812.9 2479.9 10812.5 2477.43 10812.2C2474.96 10811.9 2472.63 10811.7 2470.46 10811.7C2465.52 10811.7 2460.84 10812.7 2456.42 10814.8C2452.08 10816.7 2448.26 10819.6 2444.97 10823.3C2441.68 10827 2439.09 10831.4 2437.22 10836.7C2435.35 10841.8 2434.41 10847.6 2434.41 10854V10920H2415.66V10796.9H2431.16L2433.18 10819.6H2433.96C2436.51 10815 2439.58 10810.9 2443.17 10807.1C2446.77 10803.3 2450.92 10800.3 2455.64 10798C2460.43 10795.8 2465.75 10794.7 2471.59 10794.7ZM2613.31 10922.2C2597.74 10922.2 2585.39 10916.9 2576.25 10906.3C2567.19 10895.7 2562.67 10879.9 2562.67 10858.9C2562.67 10837.7 2567.31 10821.7 2576.59 10811C2585.87 10800.1 2598.23 10794.7 2613.65 10794.7C2620.17 10794.7 2625.86 10795.5 2630.72 10797.3C2635.59 10799 2639.78 10801.3 2643.3 10804.2C2646.82 10807.1 2649.78 10810.3 2652.17 10814H2653.52C2653.22 10811.7 2652.92 10808.5 2652.62 10804.4C2652.32 10800.4 2652.17 10797.1 2652.17 10794.6V10745.3H2670.81V10920H2655.77L2652.96 10902.5H2652.17C2649.85 10906.1 2646.89 10909.5 2643.3 10912.5C2639.78 10915.5 2635.55 10917.9 2630.61 10919.7C2625.74 10921.4 2619.98 10922.2 2613.31 10922.2ZM2616.23 10906.7C2629.41 10906.7 2638.73 10903 2644.2 10895.5C2649.66 10888 2652.4 10876.9 2652.4 10862.2V10858.8C2652.4 10843.1 2649.78 10831.1 2644.54 10822.7C2639.37 10814.4 2629.94 10810.2 2616.23 10810.2C2604.78 10810.2 2596.21 10814.6 2590.52 10823.4C2584.83 10832.2 2581.98 10844.2 2581.98 10859.4C2581.98 10874.5 2584.79 10886.2 2590.4 10894.4C2596.09 10902.6 2604.7 10906.7 2616.23 10906.7ZM2816.47 10858.2C2816.47 10868.3 2815.16 10877.4 2812.54 10885.3C2809.92 10893.2 2806.14 10899.9 2801.2 10905.4C2796.26 10910.9 2790.27 10915.1 2783.23 10918C2776.27 10920.8 2768.37 10922.2 2759.54 10922.2C2751.3 10922.2 2743.74 10920.8 2736.85 10918C2730.04 10915.1 2724.12 10910.9 2719.11 10905.4C2714.16 10899.9 2710.31 10893.2 2707.54 10885.3C2704.84 10877.4 2703.5 10868.3 2703.5 10858.2C2703.5 10844.8 2705.78 10833.3 2710.35 10823.9C2714.91 10814.4 2721.43 10807.1 2729.89 10802.2C2738.42 10797.2 2748.57 10794.7 2760.32 10794.7C2771.55 10794.7 2781.36 10797.2 2789.75 10802.2C2798.21 10807.2 2804.76 10814.5 2809.4 10824C2814.12 10833.4 2816.47 10844.8 2816.47 10858.2ZM2722.81 10858.2C2722.81 10868.1 2724.12 10876.7 2726.74 10884C2729.36 10891.2 2733.41 10896.8 2738.87 10900.8C2744.34 10904.8 2751.37 10906.7 2759.98 10906.7C2768.52 10906.7 2775.52 10904.8 2780.99 10900.8C2786.53 10896.8 2790.61 10891.2 2793.23 10884C2795.85 10876.7 2797.16 10868.1 2797.16 10858.2C2797.16 10848.4 2795.85 10840 2793.23 10832.9C2790.61 10825.7 2786.56 10820.1 2781.1 10816.2C2775.63 10812.3 2768.56 10810.4 2759.87 10810.4C2747.07 10810.4 2737.67 10814.6 2731.68 10823.1C2725.77 10831.5 2722.81 10843.3 2722.81 10858.2ZM2955.84 10794.7C2966.33 10794.7 2975.31 10797 2982.8 10801.6C2990.28 10806.3 2996.01 10812.8 2999.98 10821.2C3003.95 10829.5 3005.93 10839.2 3005.93 10850.4V10861.9H2920.92C2921.14 10876.4 2924.74 10887.4 2931.7 10895C2938.66 10902.5 2948.47 10906.3 2961.12 10906.3C2968.91 10906.3 2975.8 10905.6 2981.79 10904.2C2987.78 10902.7 2993.99 10900.6 3000.43 10897.9V10914.3C2994.21 10917 2988.04 10919.1 2981.9 10920.3C2975.83 10921.6 2968.65 10922.2 2960.34 10922.2C2948.51 10922.2 2938.17 10919.9 2929.34 10915.1C2920.58 10910.2 2913.77 10903.1 2908.9 10893.7C2904.03 10884.4 2901.6 10872.9 2901.6 10859.4C2901.6 10846.1 2903.81 10834.6 2908.23 10825C2912.72 10815.3 2919.01 10807.8 2927.09 10802.5C2935.25 10797.3 2944.84 10794.7 2955.84 10794.7ZM2955.62 10809.9C2945.66 10809.9 2937.73 10813.2 2931.81 10819.7C2925.9 10826.2 2922.38 10835.3 2921.25 10847H2986.39C2986.32 10839.7 2985.16 10833.2 2982.91 10827.7C2980.74 10822.1 2977.41 10817.7 2972.91 10814.7C2968.42 10811.5 2962.66 10809.9 2955.62 10809.9ZM3064.67 10920L3017.95 10796.9H3037.94L3065 10871.4C3066.88 10876.5 3068.78 10882.1 3070.73 10888.2C3072.68 10894.4 3074.03 10899.3 3074.77 10903H3075.56C3076.46 10899.3 3077.96 10894.4 3080.05 10888.2C3082.15 10882 3084.06 10876.4 3085.78 10871.4L3112.85 10796.9H3132.84L3086 10920H3064.67ZM3199.99 10794.7C3210.48 10794.7 3219.46 10797 3226.95 10801.6C3234.43 10806.3 3240.16 10812.8 3244.13 10821.2C3248.1 10829.5 3250.08 10839.2 3250.08 10850.4V10861.9H3165.07C3165.29 10876.4 3168.89 10887.4 3175.85 10895C3182.81 10902.5 3192.62 10906.3 3205.27 10906.3C3213.06 10906.3 3219.95 10905.6 3225.94 10904.2C3231.93 10902.7 3238.14 10900.6 3244.58 10897.9V10914.3C3238.36 10917 3232.19 10919.1 3226.05 10920.3C3219.98 10921.6 3212.8 10922.2 3204.49 10922.2C3192.66 10922.2 3182.32 10919.9 3173.49 10915.1C3164.73 10910.2 3157.92 10903.1 3153.05 10893.7C3148.18 10884.4 3145.75 10872.9 3145.75 10859.4C3145.75 10846.1 3147.96 10834.6 3152.38 10825C3156.87 10815.3 3163.16 10807.8 3171.24 10802.5C3179.4 10797.3 3188.99 10794.7 3199.99 10794.7ZM3199.77 10809.9C3189.81 10809.9 3181.88 10813.2 3175.96 10819.7C3170.05 10826.2 3166.53 10835.3 3165.4 10847H3230.54C3230.47 10839.7 3229.31 10833.2 3227.06 10827.7C3224.89 10822.1 3221.56 10817.7 3217.06 10814.7C3212.57 10811.5 3206.81 10809.9 3199.77 10809.9ZM3340.04 10794.7C3354.64 10794.7 3365.68 10798.3 3373.17 10805.4C3380.65 10812.6 3384.4 10824 3384.4 10839.8V10920H3365.98V10841C3365.98 10830.8 3363.62 10823.1 3358.91 10818C3354.26 10812.9 3347.11 10810.4 3337.46 10810.4C3323.83 10810.4 3314.25 10814.2 3308.71 10822C3303.16 10829.7 3300.39 10840.9 3300.39 10855.5V10920H3281.75V10796.9H3296.8L3299.61 10814.7H3300.62C3303.24 10810.3 3306.57 10806.7 3310.61 10803.8C3314.66 10800.8 3319.19 10798.5 3324.2 10797C3329.22 10795.5 3334.5 10794.7 3340.04 10794.7ZM3462.56 10907C3465.63 10907 3468.78 10906.7 3472 10906.2C3475.22 10905.7 3477.84 10905 3479.86 10904.3V10918.8C3477.69 10919.7 3474.65 10920.6 3470.76 10921.2C3466.94 10921.9 3463.2 10922.2 3459.53 10922.2C3453.02 10922.2 3447.1 10921.1 3441.79 10918.9C3436.47 10916.6 3432.2 10912.7 3428.98 10907.2C3425.84 10901.7 3424.27 10894.2 3424.27 10884.5V10811.5H3406.75V10802.4L3424.38 10795.1L3431.79 10768.4H3443.02V10796.9H3479.07V10811.5H3443.02V10884C3443.02 10891.7 3444.78 10897.4 3448.3 10901.2C3451.89 10905.1 3456.65 10907 3462.56 10907ZM3610.92 10858.2C3610.92 10868.3 3609.61 10877.4 3606.99 10885.3C3604.37 10893.2 3600.58 10899.9 3595.64 10905.4C3590.7 10910.9 3584.71 10915.1 3577.67 10918C3570.71 10920.8 3562.81 10922.2 3553.98 10922.2C3545.74 10922.2 3538.18 10920.8 3531.29 10918C3524.48 10915.1 3518.57 10910.9 3513.55 10905.4C3508.61 10899.9 3504.75 10893.2 3501.98 10885.3C3499.29 10877.4 3497.94 10868.3 3497.94 10858.2C3497.94 10844.8 3500.22 10833.3 3504.79 10823.9C3509.36 10814.4 3515.87 10807.1 3524.33 10802.2C3532.87 10797.2 3543.01 10794.7 3554.76 10794.7C3566 10794.7 3575.8 10797.2 3584.19 10802.2C3592.65 10807.2 3599.2 10814.5 3603.84 10824C3608.56 10833.4 3610.92 10844.8 3610.92 10858.2ZM3517.25 10858.2C3517.25 10868.1 3518.57 10876.7 3521.19 10884C3523.81 10891.2 3527.85 10896.8 3533.31 10900.8C3538.78 10904.8 3545.82 10906.7 3554.43 10906.7C3562.96 10906.7 3569.96 10904.8 3575.43 10900.8C3580.97 10896.8 3585.05 10891.2 3587.67 10884C3590.29 10876.7 3591.6 10868.1 3591.6 10858.2C3591.6 10848.4 3590.29 10840 3587.67 10832.9C3585.05 10825.7 3581.01 10820.1 3575.54 10816.2C3570.08 10812.3 3563 10810.4 3554.32 10810.4C3541.51 10810.4 3532.12 10814.6 3526.13 10823.1C3520.21 10831.5 3517.25 10843.3 3517.25 10858.2ZM3664.49 10893.3L3665.95 10895.9C3664.6 10901.3 3662.88 10907.2 3660.78 10913.4C3658.76 10919.6 3656.51 10925.8 3654.04 10932C3651.65 10938.3 3649.21 10944.2 3646.74 10949.6H3632.82C3634.39 10943.7 3635.92 10937.3 3637.42 10930.7C3638.92 10924.1 3640.27 10917.6 3641.46 10911.1C3642.74 10904.6 3643.75 10898.7 3644.5 10893.3H3664.49ZM3809.81 10794.7C3820.29 10794.7 3829.27 10797 3836.76 10801.6C3844.25 10806.3 3849.98 10812.8 3853.94 10821.2C3857.91 10829.5 3859.9 10839.2 3859.9 10850.4V10861.9H3774.88C3775.11 10876.4 3778.7 10887.4 3785.66 10895C3792.63 10902.5 3802.43 10906.3 3815.09 10906.3C3822.87 10906.3 3829.76 10905.6 3835.75 10904.2C3841.74 10902.7 3847.95 10900.6 3854.39 10897.9V10914.3C3848.18 10917 3842 10919.1 3835.86 10920.3C3829.8 10921.6 3822.61 10922.2 3814.3 10922.2C3802.47 10922.2 3792.14 10919.9 3783.3 10915.1C3774.54 10910.2 3767.73 10903.1 3762.87 10893.7C3758 10884.4 3755.57 10872.9 3755.57 10859.4C3755.57 10846.1 3757.77 10834.6 3762.19 10825C3766.68 10815.3 3772.97 10807.8 3781.06 10802.5C3789.22 10797.3 3798.8 10794.7 3809.81 10794.7ZM3809.58 10809.9C3799.63 10809.9 3791.69 10813.2 3785.78 10819.7C3779.86 10826.2 3776.34 10835.3 3775.22 10847H3840.36C3840.28 10839.7 3839.12 10833.2 3836.87 10827.7C3834.7 10822.1 3831.37 10817.7 3826.88 10814.7C3822.39 10811.5 3816.62 10809.9 3809.58 10809.9ZM4025.21 10794.7C4038.76 10794.7 4048.98 10798.2 4055.87 10805.3C4062.76 10812.4 4066.2 10823.7 4066.2 10839.4V10920H4047.78V10840.3C4047.78 10830.3 4045.61 10822.9 4041.27 10817.9C4037 10812.9 4030.64 10810.4 4022.18 10810.4C4010.27 10810.4 4001.62 10813.8 3996.23 10820.7C3990.84 10827.6 3988.15 10837.8 3988.15 10851.2V10920H3969.62V10840.3C3969.62 10833.6 3968.64 10828.1 3966.7 10823.6C3964.83 10819.2 3961.98 10815.9 3958.16 10813.8C3954.42 10811.5 3949.67 10810.4 3943.9 10810.4C3935.74 10810.4 3929.19 10812.1 3924.25 10815.4C3919.31 10818.8 3915.71 10823.8 3913.47 10830.5C3911.29 10837.1 3910.21 10845.2 3910.21 10854.9V10920H3891.57V10796.9H3906.62L3909.42 10814.3H3910.43C3912.9 10810.1 3916.01 10806.5 3919.75 10803.5C3923.5 10800.6 3927.69 10798.4 3932.33 10796.9C3936.97 10795.4 3941.92 10794.7 3947.16 10794.7C3956.52 10794.7 3964.34 10796.4 3970.63 10799.9C3976.99 10803.4 3981.6 10808.7 3984.44 10815.8H3985.45C3989.5 10808.7 3995.04 10803.4 4002.07 10799.9C4009.11 10796.4 4016.82 10794.7 4025.21 10794.7ZM4222.53 10794.7C4237.13 10794.7 4248.17 10798.3 4255.66 10805.4C4263.15 10812.6 4266.89 10824 4266.89 10839.8V10920H4248.47V10841C4248.47 10830.8 4246.11 10823.1 4241.4 10818C4236.75 10812.9 4229.6 10810.4 4219.95 10810.4C4206.32 10810.4 4196.74 10814.2 4191.2 10822C4185.65 10829.7 4182.88 10840.9 4182.88 10855.5V10920H4164.24V10796.9H4179.29L4182.1 10814.7H4183.11C4185.73 10810.3 4189.06 10806.7 4193.1 10803.8C4197.15 10800.8 4201.68 10798.5 4206.69 10797C4211.71 10795.5 4216.99 10794.7 4222.53 10794.7ZM4411.42 10858.2C4411.42 10868.3 4410.11 10877.4 4407.49 10885.3C4404.87 10893.2 4401.09 10899.9 4396.15 10905.4C4391.21 10910.9 4385.22 10915.1 4378.18 10918C4371.22 10920.8 4363.32 10922.2 4354.49 10922.2C4346.25 10922.2 4338.69 10920.8 4331.8 10918C4324.99 10915.1 4319.07 10910.9 4314.06 10905.4C4309.12 10899.9 4305.26 10893.2 4302.49 10885.3C4299.79 10877.4 4298.45 10868.3 4298.45 10858.2C4298.45 10844.8 4300.73 10833.3 4305.3 10823.9C4309.86 10814.4 4316.38 10807.1 4324.84 10802.2C4333.37 10797.2 4343.52 10794.7 4355.27 10794.7C4366.5 10794.7 4376.31 10797.2 4384.7 10802.2C4393.16 10807.2 4399.71 10814.5 4404.35 10824C4409.07 10833.4 4411.42 10844.8 4411.42 10858.2ZM4317.76 10858.2C4317.76 10868.1 4319.07 10876.7 4321.69 10884C4324.31 10891.2 4328.36 10896.8 4333.82 10900.8C4339.29 10904.8 4346.33 10906.7 4354.94 10906.7C4363.47 10906.7 4370.47 10904.8 4375.94 10900.8C4381.48 10896.8 4385.56 10891.2 4388.18 10884C4390.8 10876.7 4392.11 10868.1 4392.11 10858.2C4392.11 10848.4 4390.8 10840 4388.18 10832.9C4385.56 10825.7 4381.51 10820.1 4376.05 10816.2C4370.58 10812.3 4363.51 10810.4 4354.82 10810.4C4342.02 10810.4 4332.62 10814.6 4326.63 10823.1C4320.72 10831.5 4317.76 10843.3 4317.76 10858.2ZM4577.3 10794.7C4590.85 10794.7 4601.07 10798.2 4607.96 10805.3C4614.85 10812.4 4618.29 10823.7 4618.29 10839.4V10920H4599.87V10840.3C4599.87 10830.3 4597.7 10822.9 4593.36 10817.9C4589.09 10812.9 4582.73 10810.4 4574.27 10810.4C4562.36 10810.4 4553.71 10813.8 4548.32 10820.7C4542.93 10827.6 4540.24 10837.8 4540.24 10851.2V10920H4521.71V10840.3C4521.71 10833.6 4520.73 10828.1 4518.79 10823.6C4516.92 10819.2 4514.07 10815.9 4510.25 10813.8C4506.51 10811.5 4501.76 10810.4 4495.99 10810.4C4487.83 10810.4 4481.28 10812.1 4476.34 10815.4C4471.4 10818.8 4467.8 10823.8 4465.56 10830.5C4463.38 10837.1 4462.3 10845.2 4462.3 10854.9V10920H4443.66V10796.9H4458.71L4461.51 10814.3H4462.52C4464.99 10810.1 4468.1 10806.5 4471.84 10803.5C4475.59 10800.6 4479.78 10798.4 4484.42 10796.9C4489.06 10795.4 4494.01 10794.7 4499.25 10794.7C4508.61 10794.7 4516.43 10796.4 4522.72 10799.9C4529.08 10803.4 4533.69 10808.7 4536.53 10815.8H4537.54C4541.59 10808.7 4547.13 10803.4 4554.16 10799.9C4561.2 10796.4 4568.91 10794.7 4577.3 10794.7ZM4703.98 10794.7C4714.46 10794.7 4723.44 10797 4730.93 10801.6C4738.42 10806.3 4744.15 10812.8 4748.11 10821.2C4752.08 10829.5 4754.07 10839.2 4754.07 10850.4V10861.9H4669.05C4669.28 10876.4 4672.87 10887.4 4679.83 10895C4686.8 10902.5 4696.6 10906.3 4709.26 10906.3C4717.04 10906.3 4723.93 10905.6 4729.92 10904.2C4735.91 10902.7 4742.12 10900.6 4748.56 10897.9V10914.3C4742.35 10917 4736.17 10919.1 4730.03 10920.3C4723.97 10921.6 4716.78 10922.2 4708.47 10922.2C4696.64 10922.2 4686.31 10919.9 4677.47 10915.1C4668.71 10910.2 4661.9 10903.1 4657.04 10893.7C4652.17 10884.4 4649.74 10872.9 4649.74 10859.4C4649.74 10846.1 4651.94 10834.6 4656.36 10825C4660.85 10815.3 4667.14 10807.8 4675.23 10802.5C4683.39 10797.3 4692.97 10794.7 4703.98 10794.7ZM4703.75 10809.9C4693.8 10809.9 4685.86 10813.2 4679.95 10819.7C4674.03 10826.2 4670.51 10835.3 4669.39 10847H4734.53C4734.45 10839.7 4733.29 10833.2 4731.04 10827.7C4728.87 10822.1 4725.54 10817.7 4721.05 10814.7C4716.56 10811.5 4710.79 10809.9 4703.75 10809.9ZM4889.28 10922.2C4873.71 10922.2 4861.35 10916.9 4852.22 10906.3C4843.16 10895.7 4838.63 10879.9 4838.63 10858.9C4838.63 10837.7 4843.27 10821.7 4852.56 10811C4861.84 10800.1 4874.19 10794.7 4889.62 10794.7C4896.13 10794.7 4901.82 10795.5 4906.69 10797.3C4911.56 10799 4915.75 10801.3 4919.27 10804.2C4922.79 10807.1 4925.74 10810.3 4928.14 10814H4929.49C4929.19 10811.7 4928.89 10808.5 4928.59 10804.4C4928.29 10800.4 4928.14 10797.1 4928.14 10794.6V10745.3H4946.78V10920H4931.73L4928.92 10902.5H4928.14C4925.82 10906.1 4922.86 10909.5 4919.27 10912.5C4915.75 10915.5 4911.52 10917.9 4906.58 10919.7C4901.71 10921.4 4895.94 10922.2 4889.28 10922.2ZM4892.2 10906.7C4905.38 10906.7 4914.7 10903 4920.17 10895.5C4925.63 10888 4928.36 10876.9 4928.36 10862.2V10858.8C4928.36 10843.1 4925.74 10831.1 4920.5 10822.7C4915.34 10814.4 4905.9 10810.2 4892.2 10810.2C4880.75 10810.2 4872.17 10814.6 4866.48 10823.4C4860.79 10832.2 4857.95 10844.2 4857.95 10859.4C4857.95 10874.5 4860.76 10886.2 4866.37 10894.4C4872.06 10902.6 4880.67 10906.7 4892.2 10906.7ZM5032.36 10794.9C5047.03 10794.9 5057.93 10798.2 5065.04 10804.8C5072.15 10811.4 5075.71 10821.9 5075.71 10836.3V10920H5062.12L5058.52 10901.8H5057.63C5054.18 10906.3 5050.59 10910.1 5046.84 10913.1C5043.1 10916.1 5038.76 10918.4 5033.82 10920C5028.95 10921.5 5022.96 10922.2 5015.85 10922.2C5008.36 10922.2 5001.7 10920.9 4995.86 10918.3C4990.09 10915.7 4985.53 10911.7 4982.16 10906.4C4978.86 10901.1 4977.22 10894.4 4977.22 10886.2C4977.22 10873.9 4982.08 10864.5 4991.82 10857.9C5001.55 10851.3 5016.37 10847.7 5036.29 10847.1L5057.51 10846.2V10838.7C5057.51 10828.1 5055.23 10820.6 5050.66 10816.3C5046.1 10812.1 5039.66 10809.9 5031.35 10809.9C5024.91 10809.9 5018.77 10810.9 5012.93 10812.7C5007.09 10814.6 5001.55 10816.8 4996.31 10819.4L4990.58 10805.2C4996.12 10802.4 5002.48 10799.9 5009.67 10797.9C5016.86 10795.9 5024.42 10794.9 5032.36 10794.9ZM5057.29 10859.4L5038.53 10860.1C5023.19 10860.7 5012.37 10863.2 5006.08 10867.7C4999.79 10872.1 4996.64 10878.3 4996.64 10886.4C4996.64 10893.5 4998.78 10898.7 5003.05 10902C5007.31 10905.4 5012.97 10907.1 5020 10907.1C5030.93 10907.1 5039.88 10904.1 5046.84 10898C5053.81 10891.9 5057.29 10882.8 5057.29 10870.7V10859.4ZM5223.16 10922.2C5212.08 10922.2 5202.31 10920 5193.85 10915.4C5185.39 10910.8 5178.8 10903.9 5174.09 10894.5C5169.37 10885.1 5167.01 10873.4 5167.01 10859.1C5167.01 10844.2 5169.48 10832.1 5174.42 10822.6C5179.44 10813.1 5186.33 10806.1 5195.09 10801.5C5203.85 10797 5213.8 10794.7 5224.96 10794.7C5231.1 10794.7 5237.01 10795.3 5242.7 10796.6C5248.47 10797.8 5253.19 10799.3 5256.85 10801.2L5251.24 10816.8C5247.5 10815.3 5243.15 10813.9 5238.21 10812.7C5233.35 10811.6 5228.78 10811 5224.51 10811C5215.98 10811 5208.86 10812.8 5203.17 10816.5C5197.56 10820.1 5193.33 10825.5 5190.48 10832.6C5187.71 10839.7 5186.33 10848.5 5186.33 10858.9C5186.33 10868.9 5187.67 10877.4 5190.37 10884.4C5193.14 10891.4 5197.22 10896.8 5202.61 10900.6C5208.08 10904.2 5214.89 10906.1 5223.05 10906.1C5229.56 10906.1 5235.44 10905.4 5240.68 10904.1C5245.92 10902.6 5250.68 10901 5254.95 10899.1V10915.7C5250.83 10917.8 5246.22 10919.4 5241.13 10920.6C5236.12 10921.7 5230.13 10922.2 5223.16 10922.2ZM5390.27 10858.2C5390.27 10868.3 5388.96 10877.4 5386.34 10885.3C5383.72 10893.2 5379.94 10899.9 5375 10905.4C5370.06 10910.9 5364.07 10915.1 5357.03 10918C5350.07 10920.8 5342.17 10922.2 5333.33 10922.2C5325.1 10922.2 5317.54 10920.8 5310.65 10918C5303.84 10915.1 5297.92 10910.9 5292.9 10905.4C5287.96 10899.9 5284.11 10893.2 5281.34 10885.3C5278.64 10877.4 5277.29 10868.3 5277.29 10858.2C5277.29 10844.8 5279.58 10833.3 5284.14 10823.9C5288.71 10814.4 5295.23 10807.1 5303.69 10802.2C5312.22 10797.2 5322.37 10794.7 5334.12 10794.7C5345.35 10794.7 5355.16 10797.2 5363.54 10802.2C5372 10807.2 5378.56 10814.5 5383.2 10824C5387.91 10833.4 5390.27 10844.8 5390.27 10858.2ZM5296.61 10858.2C5296.61 10868.1 5297.92 10876.7 5300.54 10884C5303.16 10891.2 5307.2 10896.8 5312.67 10900.8C5318.14 10904.8 5325.17 10906.7 5333.78 10906.7C5342.32 10906.7 5349.32 10904.8 5354.78 10900.8C5360.32 10896.8 5364.4 10891.2 5367.03 10884C5369.65 10876.7 5370.96 10868.1 5370.96 10858.2C5370.96 10848.4 5369.65 10840 5367.03 10832.9C5364.4 10825.7 5360.36 10820.1 5354.9 10816.2C5349.43 10812.3 5342.36 10810.4 5333.67 10810.4C5320.87 10810.4 5311.47 10814.6 5305.48 10823.1C5299.57 10831.5 5296.61 10843.3 5296.61 10858.2ZM5556.15 10794.7C5569.7 10794.7 5579.92 10798.2 5586.81 10805.3C5593.69 10812.4 5597.14 10823.7 5597.14 10839.4V10920H5578.72V10840.3C5578.72 10830.3 5576.55 10822.9 5572.21 10817.9C5567.94 10812.9 5561.57 10810.4 5553.11 10810.4C5541.21 10810.4 5532.56 10813.8 5527.17 10820.7C5521.78 10827.6 5519.09 10837.8 5519.09 10851.2V10920H5500.56V10840.3C5500.56 10833.6 5499.58 10828.1 5497.64 10823.6C5495.76 10819.2 5492.92 10815.9 5489.1 10813.8C5485.36 10811.5 5480.6 10810.4 5474.84 10810.4C5466.68 10810.4 5460.13 10812.1 5455.18 10815.4C5450.24 10818.8 5446.65 10823.8 5444.4 10830.5C5442.23 10837.1 5441.15 10845.2 5441.15 10854.9V10920H5422.5V10796.9H5437.55L5440.36 10814.3H5441.37C5443.84 10810.1 5446.95 10806.5 5450.69 10803.5C5454.44 10800.6 5458.63 10798.4 5463.27 10796.9C5467.91 10795.4 5472.85 10794.7 5478.09 10794.7C5487.45 10794.7 5495.28 10796.4 5501.57 10799.9C5507.93 10803.4 5512.53 10808.7 5515.38 10815.8H5516.39C5520.43 10808.7 5525.97 10803.4 5533.01 10799.9C5540.05 10796.4 5547.76 10794.7 5556.15 10794.7ZM5654.08 10796.9V10920H5635.43V10796.9H5654.08ZM5644.98 10750.9C5648.05 10750.9 5650.67 10751.9 5652.84 10753.9C5655.09 10755.8 5656.21 10758.9 5656.21 10763.1C5656.21 10767.2 5655.09 10770.3 5652.84 10772.3C5650.67 10774.3 5648.05 10775.4 5644.98 10775.4C5641.76 10775.4 5639.06 10774.3 5636.89 10772.3C5634.8 10770.3 5633.75 10767.2 5633.75 10763.1C5633.75 10758.9 5634.8 10755.8 5636.89 10753.9C5639.06 10751.9 5641.76 10750.9 5644.98 10750.9ZM5773.23 10886.3C5773.23 10894.2 5771.25 10900.8 5767.28 10906.2C5763.39 10911.5 5757.77 10915.5 5750.43 10918.2C5743.17 10920.9 5734.49 10922.2 5724.38 10922.2C5715.77 10922.2 5708.32 10921.6 5702.03 10920.2C5695.74 10918.9 5690.24 10917 5685.52 10914.5V10897.3C5690.54 10899.8 5696.53 10902 5703.49 10904.1C5710.45 10906.1 5717.57 10907.1 5724.83 10907.1C5735.46 10907.1 5743.17 10905.4 5747.96 10901.9C5752.75 10898.5 5755.15 10893.8 5755.15 10887.9C5755.15 10884.5 5754.18 10881.6 5752.23 10879C5750.36 10876.4 5747.18 10873.9 5742.68 10871.5C5738.19 10869 5731.98 10866.3 5724.04 10863.4C5716.18 10860.4 5709.37 10857.4 5703.6 10854.5C5697.91 10851.5 5693.5 10847.9 5690.35 10843.6C5687.28 10839.4 5685.75 10833.8 5685.75 10827C5685.75 10816.6 5689.94 10808.6 5698.32 10803.1C5706.78 10797.5 5717.87 10794.7 5731.57 10794.7C5738.98 10794.7 5745.9 10795.4 5752.34 10796.9C5758.86 10798.3 5764.92 10800.3 5770.54 10802.8L5764.25 10817.7C5759.16 10815.5 5753.73 10813.7 5747.96 10812.2C5742.2 10810.7 5736.32 10809.9 5730.33 10809.9C5721.72 10809.9 5715.1 10811.4 5710.45 10814.2C5705.89 10817.1 5703.6 10820.9 5703.6 10825.9C5703.6 10829.7 5704.65 10832.9 5706.75 10835.3C5708.92 10837.8 5712.36 10840.1 5717.08 10842.3C5721.8 10844.5 5728.01 10847 5735.72 10849.9C5743.43 10852.8 5750.1 10855.7 5755.71 10858.8C5761.33 10861.8 5765.63 10865.5 5768.63 10869.8C5771.7 10874.1 5773.23 10879.6 5773.23 10886.3ZM5882.84 10886.3C5882.84 10894.2 5880.86 10900.8 5876.89 10906.2C5873 10911.5 5867.38 10915.5 5860.04 10918.2C5852.78 10920.9 5844.1 10922.2 5833.99 10922.2C5825.38 10922.2 5817.93 10921.6 5811.64 10920.2C5805.35 10918.9 5799.85 10917 5795.13 10914.5V10897.3C5800.15 10899.8 5806.14 10902 5813.1 10904.1C5820.06 10906.1 5827.18 10907.1 5834.44 10907.1C5845.07 10907.1 5852.78 10905.4 5857.57 10901.9C5862.36 10898.5 5864.76 10893.8 5864.76 10887.9C5864.76 10884.5 5863.79 10881.6 5861.84 10879C5859.97 10876.4 5856.79 10873.9 5852.29 10871.5C5847.8 10869 5841.59 10866.3 5833.65 10863.4C5825.79 10860.4 5818.98 10857.4 5813.21 10854.5C5807.52 10851.5 5803.1 10847.9 5799.96 10843.6C5796.89 10839.4 5795.36 10833.8 5795.36 10827C5795.36 10816.6 5799.55 10808.6 5807.93 10803.1C5816.39 10797.5 5827.47 10794.7 5841.18 10794.7C5848.59 10794.7 5855.51 10795.4 5861.95 10796.9C5868.47 10798.3 5874.53 10800.3 5880.15 10802.8L5873.86 10817.7C5868.77 10815.5 5863.34 10813.7 5857.57 10812.2C5851.81 10810.7 5845.93 10809.9 5839.94 10809.9C5831.33 10809.9 5824.7 10811.4 5820.06 10814.2C5815.5 10817.1 5813.21 10820.9 5813.21 10825.9C5813.21 10829.7 5814.26 10832.9 5816.36 10835.3C5818.53 10837.8 5821.97 10840.1 5826.69 10842.3C5831.41 10844.5 5837.62 10847 5845.33 10849.9C5853.04 10852.8 5859.71 10855.7 5865.32 10858.8C5870.94 10861.8 5875.24 10865.5 5878.24 10869.8C5881.31 10874.1 5882.84 10879.6 5882.84 10886.3ZM5958.87 10794.9C5973.55 10794.9 5984.44 10798.2 5991.55 10804.8C5998.66 10811.4 6002.22 10821.9 6002.22 10836.3V10920H5988.63L5985.04 10901.8H5984.14C5980.7 10906.3 5977.1 10910.1 5973.36 10913.1C5969.61 10916.1 5965.27 10918.4 5960.33 10920C5955.46 10921.5 5949.47 10922.2 5942.36 10922.2C5934.88 10922.2 5928.21 10920.9 5922.37 10918.3C5916.61 10915.7 5912.04 10911.7 5908.67 10906.4C5905.38 10901.1 5903.73 10894.4 5903.73 10886.2C5903.73 10873.9 5908.6 10864.5 5918.33 10857.9C5928.06 10851.3 5942.89 10847.7 5962.8 10847.1L5984.03 10846.2V10838.7C5984.03 10828.1 5981.74 10820.6 5977.18 10816.3C5972.61 10812.1 5966.17 10809.9 5957.86 10809.9C5951.42 10809.9 5945.28 10810.9 5939.44 10812.7C5933.6 10814.6 5928.06 10816.8 5922.82 10819.4L5917.09 10805.2C5922.63 10802.4 5929 10799.9 5936.19 10797.9C5943.37 10795.9 5950.93 10794.9 5958.87 10794.9ZM5983.8 10859.4L5965.05 10860.1C5949.7 10860.7 5938.88 10863.2 5932.59 10867.7C5926.3 10872.1 5923.16 10878.3 5923.16 10886.4C5923.16 10893.5 5925.29 10898.7 5929.56 10902C5933.83 10905.4 5939.48 10907.1 5946.52 10907.1C5957.45 10907.1 5966.4 10904.1 5973.36 10898C5980.32 10891.9 5983.8 10882.8 5983.8 10870.7V10859.4ZM5914.62 10780.3C5915.07 10775.8 5915.93 10771.8 5917.21 10768.3C5918.48 10764.8 5920.16 10761.8 5922.26 10759.3C5924.36 10756.8 5926.83 10754.9 5929.67 10753.7C5932.59 10752.3 5935.81 10751.7 5939.33 10751.7C5942.77 10751.7 5946.07 10752.4 5949.21 10753.8C5952.36 10755.1 5955.35 10756.7 5958.2 10758.5C5961.04 10760.2 5963.78 10761.8 5966.4 10763.2C5969.09 10764.6 5971.67 10765.2 5974.14 10765.2C5977.74 10765.2 5980.51 10764.2 5982.46 10762C5984.48 10759.7 5986.01 10756.2 5987.06 10751.4H5998.07C5997.09 10760.2 5994.51 10767.2 5990.32 10772.4C5986.12 10777.6 5980.47 10780.2 5973.36 10780.2C5970.06 10780.2 5966.88 10779.5 5963.81 10778.2C5960.74 10776.7 5957.79 10775.2 5954.94 10773.4C5952.1 10771.6 5949.29 10770.1 5946.52 10768.7C5943.82 10767.3 5941.16 10766.6 5938.54 10766.6C5934.88 10766.6 5932.07 10767.7 5930.12 10770C5928.17 10772.1 5926.68 10775.6 5925.63 10780.3H5914.62ZM6146.76 10858.2C6146.76 10868.3 6145.45 10877.4 6142.83 10885.3C6140.21 10893.2 6136.42 10899.9 6131.48 10905.4C6126.54 10910.9 6120.55 10915.1 6113.51 10918C6106.55 10920.8 6098.65 10922.2 6089.82 10922.2C6081.58 10922.2 6074.02 10920.8 6067.13 10918C6060.32 10915.1 6054.4 10910.9 6049.39 10905.4C6044.45 10899.9 6040.59 10893.2 6037.82 10885.3C6035.13 10877.4 6033.78 10868.3 6033.78 10858.2C6033.78 10844.8 6036.06 10833.3 6040.63 10823.9C6045.2 10814.4 6051.71 10807.1 6060.17 10802.2C6068.71 10797.2 6078.85 10794.7 6090.6 10794.7C6101.83 10794.7 6111.64 10797.2 6120.03 10802.2C6128.49 10807.2 6135.04 10814.5 6139.68 10824C6144.4 10833.4 6146.76 10844.8 6146.76 10858.2ZM6053.09 10858.2C6053.09 10868.1 6054.4 10876.7 6057.03 10884C6059.65 10891.2 6063.69 10896.8 6069.15 10900.8C6074.62 10904.8 6081.66 10906.7 6090.27 10906.7C6098.8 10906.7 6105.8 10904.8 6111.27 10900.8C6116.81 10896.8 6120.89 10891.2 6123.51 10884C6126.13 10876.7 6127.44 10868.1 6127.44 10858.2C6127.44 10848.4 6126.13 10840 6123.51 10832.9C6120.89 10825.7 6116.85 10820.1 6111.38 10816.2C6105.92 10812.3 6098.84 10810.4 6090.16 10810.4C6077.35 10810.4 6067.96 10814.6 6061.97 10823.1C6056.05 10831.5 6053.09 10843.3 6053.09 10858.2ZM6344.86 10858.2C6344.86 10868.3 6343.55 10877.4 6340.93 10885.3C6338.31 10893.2 6334.53 10899.9 6329.59 10905.4C6324.65 10910.9 6318.66 10915.1 6311.62 10918C6304.66 10920.8 6296.76 10922.2 6287.92 10922.2C6279.69 10922.2 6272.13 10920.8 6265.24 10918C6258.43 10915.1 6252.51 10910.9 6247.49 10905.4C6242.55 10899.9 6238.7 10893.2 6235.93 10885.3C6233.23 10877.4 6231.88 10868.3 6231.88 10858.2C6231.88 10844.8 6234.17 10833.3 6238.73 10823.9C6243.3 10814.4 6249.82 10807.1 6258.28 10802.2C6266.81 10797.2 6276.96 10794.7 6288.71 10794.7C6299.94 10794.7 6309.75 10797.2 6318.13 10802.2C6326.59 10807.2 6333.15 10814.5 6337.79 10824C6342.5 10833.4 6344.86 10844.8 6344.86 10858.2ZM6251.2 10858.2C6251.2 10868.1 6252.51 10876.7 6255.13 10884C6257.75 10891.2 6261.79 10896.8 6267.26 10900.8C6272.73 10904.8 6279.76 10906.7 6288.37 10906.7C6296.91 10906.7 6303.91 10904.8 6309.37 10900.8C6314.91 10896.8 6318.99 10891.2 6321.62 10884C6324.24 10876.7 6325.55 10868.1 6325.55 10858.2C6325.55 10848.4 6324.24 10840 6321.62 10832.9C6318.99 10825.7 6314.95 10820.1 6309.49 10816.2C6304.02 10812.3 6296.95 10810.4 6288.26 10810.4C6275.46 10810.4 6266.06 10814.6 6260.07 10823.1C6254.16 10831.5 6251.2 10843.3 6251.2 10858.2ZM6433.02 10794.7C6435.49 10794.7 6438.08 10794.8 6440.77 10795.1C6443.47 10795.3 6445.86 10795.7 6447.96 10796.1L6445.6 10813.4C6443.58 10812.9 6441.33 10812.5 6438.86 10812.2C6436.39 10811.9 6434.07 10811.7 6431.9 10811.7C6426.96 10811.7 6422.28 10812.7 6417.86 10814.8C6413.52 10816.7 6409.7 10819.6 6406.41 10823.3C6403.11 10827 6400.53 10831.4 6398.66 10836.7C6396.78 10841.8 6395.85 10847.6 6395.85 10854V10920H6377.09V10796.9H6392.59L6394.61 10819.6H6395.4C6397.94 10815 6401.01 10810.9 6404.61 10807.1C6408.2 10803.3 6412.36 10800.3 6417.07 10798C6421.87 10795.8 6427.18 10794.7 6433.02 10794.7ZM6505.57 10975.3C6489.4 10975.3 6476.93 10972.2 6468.17 10966.2C6459.41 10960.2 6455.03 10951.7 6455.03 10940.9C6455.03 10933.2 6457.47 10926.6 6462.33 10921.1C6467.27 10915.7 6474.09 10912 6482.77 10910.2C6479.55 10908.7 6476.78 10906.5 6474.46 10903.5C6472.22 10900.5 6471.09 10897.1 6471.09 10893.2C6471.09 10888.7 6472.33 10884.7 6474.8 10881.4C6477.34 10877.9 6481.2 10874.6 6486.37 10871.5C6479.93 10868.9 6474.69 10864.4 6470.64 10858.2C6466.68 10851.9 6464.69 10844.6 6464.69 10836.3C6464.69 10827.5 6466.53 10820 6470.19 10813.8C6473.86 10807.5 6479.18 10802.7 6486.14 10799.4C6493.1 10796.1 6501.53 10794.4 6511.41 10794.4C6513.58 10794.4 6515.75 10794.6 6517.92 10794.8C6520.17 10794.9 6522.3 10795.2 6524.33 10795.6C6526.35 10795.9 6528.11 10796.2 6529.6 10796.7H6571.83V10808.7L6549.14 10811.5C6551.39 10814.4 6553.26 10818 6554.76 10822.1C6556.26 10826.2 6557.01 10830.8 6557.01 10835.8C6557.01 10848.1 6552.85 10857.8 6544.54 10865.1C6536.23 10872.3 6524.81 10875.9 6510.29 10875.9C6506.84 10875.9 6503.32 10875.6 6499.73 10875C6496.06 10877 6493.25 10879.2 6491.31 10881.7C6489.44 10884.2 6488.5 10887 6488.5 10890.2C6488.5 10892.6 6489.21 10894.5 6490.63 10896C6492.13 10897.4 6494.26 10898.4 6497.04 10899.1C6499.81 10899.7 6503.14 10900 6507.03 10900H6528.71C6542.11 10900 6552.36 10902.8 6559.48 10908.4C6566.66 10914 6570.26 10922.2 6570.26 10933C6570.26 10946.7 6564.72 10957.1 6553.64 10964.4C6542.56 10971.6 6526.53 10975.3 6505.57 10975.3ZM6506.13 10960.7C6516.31 10960.7 6524.74 10959.6 6531.4 10957.5C6538.14 10955.5 6543.15 10952.5 6546.45 10948.6C6549.82 10944.8 6551.5 10940.3 6551.5 10934.9C6551.5 10930 6550.38 10926.3 6548.13 10923.7C6545.89 10921.2 6542.59 10919.6 6538.25 10918.8C6533.91 10917.9 6528.59 10917.4 6522.3 10917.4H6500.97C6495.43 10917.4 6490.6 10918.3 6486.48 10920C6482.36 10921.7 6479.18 10924.3 6476.93 10927.6C6474.76 10931 6473.68 10935.2 6473.68 10940.2C6473.68 10946.9 6476.48 10951.9 6482.1 10955.4C6487.71 10958.9 6495.72 10960.7 6506.13 10960.7ZM6510.96 10862.3C6519.87 10862.3 6526.57 10860 6531.06 10855.5C6535.56 10851 6537.8 10844.5 6537.8 10835.9C6537.8 10826.7 6535.52 10819.8 6530.95 10815.2C6526.38 10810.6 6519.65 10808.3 6510.74 10808.3C6502.2 10808.3 6495.61 10810.7 6490.97 10815.4C6486.4 10820.2 6484.12 10827.1 6484.12 10836.2C6484.12 10844.6 6486.44 10851 6491.08 10855.5C6495.72 10860 6502.35 10862.3 6510.96 10862.3ZM6642.13 10794.9C6656.81 10794.9 6667.7 10798.2 6674.81 10804.8C6681.93 10811.4 6685.48 10821.9 6685.48 10836.3V10920H6671.89L6668.3 10901.8H6667.4C6663.96 10906.3 6660.36 10910.1 6656.62 10913.1C6652.88 10916.1 6648.53 10918.4 6643.59 10920C6638.73 10921.5 6632.74 10922.2 6625.62 10922.2C6618.14 10922.2 6611.47 10920.9 6605.63 10918.3C6599.87 10915.7 6595.3 10911.7 6591.93 10906.4C6588.64 10901.1 6586.99 10894.4 6586.99 10886.2C6586.99 10873.9 6591.86 10864.5 6601.59 10857.9C6611.32 10851.3 6626.15 10847.7 6646.06 10847.1L6667.29 10846.2V10838.7C6667.29 10828.1 6665.01 10820.6 6660.44 10816.3C6655.87 10812.1 6649.43 10809.9 6641.12 10809.9C6634.68 10809.9 6628.54 10810.9 6622.7 10812.7C6616.86 10814.6 6611.32 10816.8 6606.08 10819.4L6600.36 10805.2C6605.9 10802.4 6612.26 10799.9 6619.45 10797.9C6626.63 10795.9 6634.2 10794.9 6642.13 10794.9ZM6667.06 10859.4L6648.31 10860.1C6632.96 10860.7 6622.14 10863.2 6615.85 10867.7C6609.56 10872.1 6606.42 10878.3 6606.42 10886.4C6606.42 10893.5 6608.55 10898.7 6612.82 10902C6617.09 10905.4 6622.74 10907.1 6629.78 10907.1C6640.71 10907.1 6649.66 10904.1 6656.62 10898C6663.58 10891.9 6667.06 10882.8 6667.06 10870.7V10859.4ZM6782.18 10794.7C6796.78 10794.7 6807.82 10798.3 6815.31 10805.4C6822.79 10812.6 6826.54 10824 6826.54 10839.8V10920H6808.12V10841C6808.12 10830.8 6805.76 10823.1 6801.04 10818C6796.4 10812.9 6789.25 10810.4 6779.59 10810.4C6765.97 10810.4 6756.38 10814.2 6750.84 10822C6745.3 10829.7 6742.53 10840.9 6742.53 10855.5V10920H6723.89V10796.9H6738.94L6741.75 10814.7H6742.76C6745.38 10810.3 6748.71 10806.7 6752.75 10803.8C6756.8 10800.8 6761.33 10798.5 6766.34 10797C6771.36 10795.5 6776.64 10794.7 6782.18 10794.7ZM6883.59 10796.9V10920H6864.95V10796.9H6883.59ZM6874.49 10750.9C6877.56 10750.9 6880.18 10751.9 6882.35 10753.9C6884.6 10755.8 6885.72 10758.9 6885.72 10763.1C6885.72 10767.2 6884.6 10770.3 6882.35 10772.3C6880.18 10774.3 6877.56 10775.4 6874.49 10775.4C6871.27 10775.4 6868.58 10774.3 6866.41 10772.3C6864.31 10770.3 6863.26 10767.2 6863.26 10763.1C6863.26 10758.9 6864.31 10755.8 6866.41 10753.9C6868.58 10751.9 6871.27 10750.9 6874.49 10750.9ZM7002.18 10920H6912.45V10907.6L6979.95 10811.5H6916.72V10796.9H7000.72V10810.7L6934.12 10905.5H7002.18V10920ZM7076.98 10794.9C7091.65 10794.9 7102.54 10798.2 7109.66 10804.8C7116.77 10811.4 7120.33 10821.9 7120.33 10836.3V10920H7106.74L7103.14 10901.8H7102.25C7098.8 10906.3 7095.21 10910.1 7091.46 10913.1C7087.72 10916.1 7083.38 10918.4 7078.44 10920C7073.57 10921.5 7067.58 10922.2 7060.47 10922.2C7052.98 10922.2 7046.32 10920.9 7040.48 10918.3C7034.71 10915.7 7030.15 10911.7 7026.78 10906.4C7023.48 10901.1 7021.83 10894.4 7021.83 10886.2C7021.83 10873.9 7026.7 10864.5 7036.43 10857.9C7046.17 10851.3 7060.99 10847.7 7080.91 10847.1L7102.13 10846.2V10838.7C7102.13 10828.1 7099.85 10820.6 7095.28 10816.3C7090.72 10812.1 7084.28 10809.9 7075.97 10809.9C7069.53 10809.9 7063.39 10810.9 7057.55 10812.7C7051.71 10814.6 7046.17 10816.8 7040.93 10819.4L7035.2 10805.2C7040.74 10802.4 7047.1 10799.9 7054.29 10797.9C7061.48 10795.9 7069.04 10794.9 7076.98 10794.9ZM7101.91 10859.4L7083.15 10860.1C7067.81 10860.7 7056.99 10863.2 7050.7 10867.7C7044.41 10872.1 7041.26 10878.3 7041.26 10886.4C7041.26 10893.5 7043.4 10898.7 7047.67 10902C7051.93 10905.4 7057.59 10907.1 7064.62 10907.1C7075.55 10907.1 7084.5 10904.1 7091.46 10898C7098.43 10891.9 7101.91 10882.8 7101.91 10870.7V10859.4ZM7202.53 10922.2C7186.96 10922.2 7174.61 10916.9 7165.47 10906.3C7156.41 10895.7 7151.88 10879.9 7151.88 10858.9C7151.88 10837.7 7156.53 10821.7 7165.81 10811C7175.09 10800.1 7187.45 10794.7 7202.87 10794.7C7209.38 10794.7 7215.07 10795.5 7219.94 10797.3C7224.81 10799 7229 10801.3 7232.52 10804.2C7236.04 10807.1 7238.99 10810.3 7241.39 10814H7242.74C7242.44 10811.7 7242.14 10808.5 7241.84 10804.4C7241.54 10800.4 7241.39 10797.1 7241.39 10794.6V10745.3H7260.03V10920H7244.98L7242.18 10902.5H7241.39C7239.07 10906.1 7236.11 10909.5 7232.52 10912.5C7229 10915.5 7224.77 10917.9 7219.83 10919.7C7214.96 10921.4 7209.2 10922.2 7202.53 10922.2ZM7205.45 10906.7C7218.63 10906.7 7227.95 10903 7233.42 10895.5C7238.88 10888 7241.62 10876.9 7241.62 10862.2V10858.8C7241.62 10843.1 7238.99 10831.1 7233.75 10822.7C7228.59 10814.4 7219.15 10810.2 7205.45 10810.2C7194 10810.2 7185.43 10814.6 7179.74 10823.4C7174.05 10832.2 7171.2 10844.2 7171.2 10859.4C7171.2 10874.5 7174.01 10886.2 7179.62 10894.4C7185.31 10902.6 7193.92 10906.7 7205.45 10906.7ZM7405.69 10858.2C7405.69 10868.3 7404.38 10877.4 7401.76 10885.3C7399.14 10893.2 7395.36 10899.9 7390.42 10905.4C7385.48 10910.9 7379.49 10915.1 7372.45 10918C7365.49 10920.8 7357.59 10922.2 7348.75 10922.2C7340.52 10922.2 7332.96 10920.8 7326.07 10918C7319.26 10915.1 7313.34 10910.9 7308.32 10905.4C7303.38 10899.9 7299.53 10893.2 7296.76 10885.3C7294.06 10877.4 7292.71 10868.3 7292.71 10858.2C7292.71 10844.8 7295 10833.3 7299.56 10823.9C7304.13 10814.4 7310.65 10807.1 7319.11 10802.2C7327.64 10797.2 7337.79 10794.7 7349.54 10794.7C7360.77 10794.7 7370.58 10797.2 7378.96 10802.2C7387.42 10807.2 7393.98 10814.5 7398.62 10824C7403.33 10833.4 7405.69 10844.8 7405.69 10858.2ZM7312.03 10858.2C7312.03 10868.1 7313.34 10876.7 7315.96 10884C7318.58 10891.2 7322.62 10896.8 7328.09 10900.8C7333.56 10904.8 7340.59 10906.7 7349.2 10906.7C7357.74 10906.7 7364.74 10904.8 7370.2 10900.8C7375.74 10896.8 7379.82 10891.2 7382.45 10884C7385.07 10876.7 7386.38 10868.1 7386.38 10858.2C7386.38 10848.4 7385.07 10840 7382.45 10832.9C7379.82 10825.7 7375.78 10820.1 7370.32 10816.2C7364.85 10812.3 7357.78 10810.4 7349.09 10810.4C7336.29 10810.4 7326.89 10814.6 7320.9 10823.1C7314.99 10831.5 7312.03 10843.3 7312.03 10858.2ZM7493.85 10794.7C7496.32 10794.7 7498.91 10794.8 7501.6 10795.1C7504.3 10795.3 7506.69 10795.7 7508.79 10796.1L7506.43 10813.4C7504.41 10812.9 7502.16 10812.5 7499.69 10812.2C7497.22 10811.9 7494.9 10811.7 7492.73 10811.7C7487.79 10811.7 7483.11 10812.7 7478.69 10814.8C7474.35 10816.7 7470.53 10819.6 7467.24 10823.3C7463.94 10827 7461.36 10831.4 7459.49 10836.7C7457.61 10841.8 7456.68 10847.6 7456.68 10854V10920H7437.92V10796.9H7453.42L7455.44 10819.6H7456.23C7458.78 10815 7461.84 10810.9 7465.44 10807.1C7469.03 10803.3 7473.19 10800.3 7477.9 10798C7482.7 10795.8 7488.01 10794.7 7493.85 10794.7ZM7578.08 10794.9C7592.75 10794.9 7603.65 10798.2 7610.76 10804.8C7617.87 10811.4 7621.43 10821.9 7621.43 10836.3V10920H7607.84L7604.25 10901.8H7603.35C7599.9 10906.3 7596.31 10910.1 7592.57 10913.1C7588.82 10916.1 7584.48 10918.4 7579.54 10920C7574.67 10921.5 7568.68 10922.2 7561.57 10922.2C7554.08 10922.2 7547.42 10920.9 7541.58 10918.3C7535.82 10915.7 7531.25 10911.7 7527.88 10906.4C7524.59 10901.1 7522.94 10894.4 7522.94 10886.2C7522.94 10873.9 7527.81 10864.5 7537.54 10857.9C7547.27 10851.3 7562.1 10847.7 7582.01 10847.1L7603.24 10846.2V10838.7C7603.24 10828.1 7600.95 10820.6 7596.39 10816.3C7591.82 10812.1 7585.38 10809.9 7577.07 10809.9C7570.63 10809.9 7564.49 10810.9 7558.65 10812.7C7552.81 10814.6 7547.27 10816.8 7542.03 10819.4L7536.3 10805.2C7541.84 10802.4 7548.21 10799.9 7555.39 10797.9C7562.58 10795.9 7570.14 10794.9 7578.08 10794.9ZM7603.01 10859.4L7584.26 10860.1C7568.91 10860.7 7558.09 10863.2 7551.8 10867.7C7545.51 10872.1 7542.37 10878.3 7542.37 10886.4C7542.37 10893.5 7544.5 10898.7 7548.77 10902C7553.04 10905.4 7558.69 10907.1 7565.73 10907.1C7576.66 10907.1 7585.6 10904.1 7592.57 10898C7599.53 10891.9 7603.01 10882.8 7603.01 10870.7V10859.4Z" fill="white"/>
<path d="M17180.8 3167.81L17131.1 3167.81L17131.1 3121.96C17131.1 3113.09 17129.4 3105.51 17125.9 3099.21C17122.4 3092.67 17117.5 3087.66 17111.2 3084.16C17104.7 3080.66 17097.2 3078.91 17088.8 3078.91C17079.9 3078.91 17072.3 3080.66 17066 3084.16C17059.5 3087.66 17054.6 3092.67 17051.3 3099.21C17047.8 3105.51 17046.1 3113.09 17046.1 3121.96L17046.1 3167.81L16996.4 3167.81L16996.4 3124.76C16996.4 3103.06 17000 3084.51 17007.2 3069.11C17014.5 3053.47 17024.7 3041.57 17038 3033.41C17051.3 3025.01 17067.3 3020.81 17086 3020.81L17091.6 3020.81C17109.8 3020.81 17125.7 3025.01 17139.2 3033.41C17152.5 3041.57 17162.8 3053.47 17170 3069.11C17177.2 3084.51 17180.8 3103.06 17180.8 3124.76L17180.8 3167.81ZM17254 3218.21L16996.4 3218.21L16996.4 3160.81L17254 3160.81L17254 3218.21ZM17254 2984.76L16996.4 2984.76L16996.4 2927.36L17254 2927.36L17254 2984.76ZM17254 2829.71L17144.1 2904.61L17144.1 2841.61L17254 2763.21L17254 2829.71ZM17172.1 2942.76L17126.9 2942.76L17126.9 2879.76C17126.9 2871.36 17125.3 2864.12 17122 2858.06C17118.5 2851.76 17113.8 2846.97 17107.7 2843.71C17101.4 2840.21 17094.2 2838.46 17086 2838.46C17077.8 2838.46 17070.7 2840.21 17064.6 2843.71C17058.3 2846.97 17053.6 2851.76 17050.3 2858.06C17046.8 2864.12 17045 2871.36 17045 2879.76L17045 2942.76L16996.4 2942.76L16996.4 2884.31C16996.4 2863.07 16999.7 2844.64 17006.2 2829.01C17012.5 2813.37 17021.9 2801.36 17034.5 2792.96C17047.1 2784.56 17063 2780.36 17082.1 2780.36L17087.7 2780.36C17106.6 2780.36 17122.4 2784.67 17135 2793.31C17147.4 2801.71 17156.7 2813.72 17163 2829.36C17169.1 2844.76 17172.1 2863.07 17172.1 2884.31L17172.1 2942.76ZM17260.6 2609.67C17260.6 2632.77 17256.7 2652.95 17248.7 2670.22C17240.6 2687.25 17230 2701.37 17216.9 2712.57C17203.6 2723.77 17189.2 2732.17 17173.8 2737.77C17158.4 2743.14 17143.6 2745.82 17129.4 2745.82L17121.7 2745.82C17105.8 2745.82 17090.2 2743.02 17074.8 2737.42C17059.2 2731.59 17045 2722.95 17032.4 2711.52C17019.8 2700.09 17009.8 2685.85 17002.3 2668.82C16994.6 2651.79 16990.8 2632.07 16990.8 2609.67C16990.8 2587.27 16994.6 2567.55 17002.3 2550.52C17009.8 2533.49 17019.8 2519.25 17032.4 2507.82C17045 2496.39 17059.2 2487.75 17074.8 2481.92C17090.2 2476.09 17105.8 2473.17 17121.7 2473.17L17129.4 2473.17C17143.6 2473.17 17158.4 2475.97 17173.8 2481.57C17189.2 2487.17 17203.6 2495.57 17216.9 2506.77C17230 2517.97 17240.6 2532.2 17248.7 2549.47C17256.7 2566.5 17260.6 2586.57 17260.6 2609.67ZM17207.1 2609.67C17207.1 2597.54 17205 2586.69 17200.8 2577.12C17196.6 2567.32 17190.8 2559.04 17183.3 2552.27C17175.8 2545.27 17167.2 2540.02 17157.4 2536.52C17147.6 2533.02 17137.1 2531.27 17125.9 2531.27C17114 2531.27 17103.1 2533.14 17093.3 2536.87C17083.3 2540.37 17074.7 2545.62 17067.4 2552.62C17060 2559.39 17054.3 2567.55 17050.3 2577.12C17046.3 2586.69 17044.3 2597.54 17044.3 2609.67C17044.3 2621.8 17046.3 2632.65 17050.3 2642.22C17054.3 2651.79 17060 2660.07 17067.4 2667.07C17074.7 2673.84 17083.3 2678.97 17093.3 2682.47C17103.1 2685.97 17114 2687.72 17125.9 2687.72C17137.1 2687.72 17147.6 2685.97 17157.4 2682.47C17167.2 2678.97 17175.8 2673.84 17183.3 2667.07C17190.8 2660.07 17196.6 2651.79 17200.8 2642.22C17205 2632.65 17207.1 2621.8 17207.1 2609.67ZM17260.6 2312.43C17260.6 2335.53 17256.7 2355.36 17248.7 2371.93C17240.6 2388.5 17230 2402.03 17216.9 2412.53C17203.6 2423.03 17189.4 2430.85 17174.2 2435.98C17158.8 2440.88 17143.9 2443.33 17129.4 2443.33L17121.7 2443.33C17105.8 2443.33 17090.2 2440.76 17074.8 2435.63C17059.2 2430.5 17045 2422.68 17032.4 2412.18C17019.8 2401.45 17009.8 2388.03 17002.3 2371.93C16994.6 2355.6 16990.8 2336.35 16990.8 2314.18C16990.8 2291.08 16995.1 2270.66 17003.7 2252.93C17012.4 2235.2 17024.4 2221.08 17039.8 2210.58C17055 2199.85 17072.8 2193.55 17093.3 2191.68L17093.3 2249.43C17083.1 2251.06 17074.3 2254.8 17067.1 2260.63C17059.9 2266.46 17054.3 2274.05 17050.3 2283.38C17046.3 2292.48 17044.3 2302.75 17044.3 2314.18C17044.3 2325.61 17046.3 2335.76 17050.3 2344.63C17054.3 2353.5 17059.9 2360.96 17067.1 2367.03C17074.3 2372.86 17083 2377.41 17093 2380.68C17102.8 2383.71 17113.8 2385.23 17125.9 2385.23C17137.8 2385.23 17148.8 2383.71 17158.8 2380.68C17168.6 2377.41 17177.2 2372.75 17184.7 2366.68C17191.9 2360.38 17197.5 2352.68 17201.5 2343.58C17205.2 2334.48 17207.1 2324.1 17207.1 2312.43C17207.1 2294.7 17202.8 2279.76 17194.1 2267.63C17185.5 2255.26 17173.6 2247.8 17158.4 2245.23L17158.4 2187.83C17177.1 2189.93 17194.3 2196.23 17209.9 2206.73C17225.3 2217 17237.7 2231.11 17247 2249.08C17256.1 2266.81 17260.6 2287.93 17260.6 2312.43ZM17254 2149.75L16998.5 2149.75L16998.5 2093.75L17254 2093.75L17254 2149.75ZM17254 2100.75L17206.4 2100.75L17206.4 1989.1L17254 1989.1L17254 2100.75ZM17147.9 2100.75L17100.3 2100.75L17100.3 1997.15L17147.9 1997.15L17147.9 2100.75ZM17046.1 2100.75L16998.5 2100.75L16998.5 1991.55L17046.1 1991.55L17046.1 2100.75ZM17260.6 1854.74C17260.6 1877.84 17257 1897.33 17249.8 1913.19C17242.3 1929.06 17232.3 1941.08 17219.7 1949.24C17206.9 1957.41 17192.2 1961.49 17175.6 1961.49L17175.6 1905.84C17182.1 1905.84 17188.2 1904.09 17193.8 1900.59C17199.4 1896.86 17203.9 1891.26 17207.4 1883.79C17210.7 1876.33 17212.3 1866.64 17212.3 1854.74C17212.3 1844.01 17210.9 1835.03 17208.1 1827.79C17205.3 1820.56 17201.5 1815.08 17196.6 1811.34C17191.5 1807.61 17185.6 1805.74 17179.1 1805.74C17170.9 1805.74 17164.5 1809.24 17159.8 1816.24C17154.9 1823.24 17151.8 1834.56 17150.4 1850.19L17148.6 1869.44C17146.5 1894.88 17138.6 1915.18 17124.8 1930.34C17111.1 1945.51 17092.9 1953.09 17070.2 1953.09C17053.9 1953.09 17039.8 1949.24 17027.9 1941.54C17016 1933.61 17006.9 1922.64 17000.6 1908.64C16994.1 1894.64 16990.8 1878.08 16990.8 1858.94C16990.8 1838.88 16994.3 1821.73 17001.3 1807.49C17008.1 1793.03 17017.7 1781.94 17030.3 1774.24C17042.7 1766.54 17057.3 1762.69 17074.1 1762.69L17074.1 1818.69C17067.8 1818.69 17062.1 1820.21 17056.9 1823.24C17051.6 1826.28 17047.3 1830.83 17044 1836.89C17040.7 1842.73 17039.1 1850.08 17039.1 1858.94C17039.1 1867.34 17040.5 1874.46 17043.3 1880.29C17046.1 1885.89 17049.9 1890.09 17054.8 1892.89C17059.5 1895.69 17064.6 1897.09 17070.2 1897.09C17077.5 1897.09 17083.8 1894.53 17089.1 1889.39C17094.5 1884.26 17097.7 1875.86 17098.6 1864.19L17100.3 1844.59C17102 1825.93 17106.1 1809.48 17112.6 1795.24C17118.9 1781.01 17127.6 1769.93 17138.8 1761.99C17149.8 1753.83 17163.2 1749.74 17179.1 1749.74C17195.4 1749.74 17209.8 1754.06 17222.1 1762.69C17234.3 1771.09 17243.7 1783.11 17250.5 1798.74C17257.3 1814.38 17260.6 1833.04 17260.6 1854.74ZM17260.6 1621.3C17260.6 1644.4 17257 1663.88 17249.8 1679.75C17242.3 1695.61 17232.3 1707.63 17219.7 1715.8C17206.9 1723.96 17192.2 1728.05 17175.6 1728.05L17175.6 1672.4C17182.1 1672.4 17188.2 1670.65 17193.8 1667.15C17199.4 1663.41 17203.9 1657.81 17207.4 1650.35C17210.7 1642.88 17212.3 1633.2 17212.3 1621.3C17212.3 1610.56 17210.9 1601.58 17208.1 1594.35C17205.3 1587.11 17201.5 1581.63 17196.6 1577.9C17191.5 1574.16 17185.6 1572.3 17179.1 1572.3C17170.9 1572.3 17164.5 1575.8 17159.8 1582.8C17154.9 1589.8 17151.8 1601.11 17150.4 1616.75L17148.6 1636C17146.5 1661.43 17138.6 1681.73 17124.8 1696.9C17111.1 1712.06 17092.9 1719.65 17070.2 1719.65C17053.9 1719.65 17039.8 1715.8 17027.9 1708.1C17016 1700.16 17006.9 1689.2 17000.6 1675.2C16994.1 1661.2 16990.8 1644.63 16990.8 1625.5C16990.8 1605.43 16994.3 1588.28 17001.3 1574.05C17008.1 1559.58 17017.7 1548.5 17030.3 1540.8C17042.7 1533.1 17057.3 1529.25 17074.1 1529.25L17074.1 1585.25C17067.8 1585.25 17062.1 1586.76 17056.9 1589.8C17051.6 1592.83 17047.3 1597.38 17044 1603.45C17040.7 1609.28 17039.1 1616.63 17039.1 1625.5C17039.1 1633.9 17040.5 1641.01 17043.3 1646.85C17046.1 1652.45 17049.9 1656.65 17054.8 1659.45C17059.5 1662.25 17064.6 1663.65 17070.2 1663.65C17077.5 1663.65 17083.8 1661.08 17089.1 1655.95C17094.5 1650.81 17097.7 1642.41 17098.6 1630.75L17100.3 1611.15C17102 1592.48 17106.1 1576.03 17112.6 1561.8C17118.9 1547.56 17127.6 1536.48 17138.8 1528.55C17149.8 1520.38 17163.2 1516.3 17179.1 1516.3C17195.4 1516.3 17209.8 1520.61 17222.1 1529.25C17234.3 1537.65 17243.7 1549.66 17250.5 1565.3C17257.3 1580.93 17260.6 1599.6 17260.6 1621.3ZM17254 1476.05L16998.5 1476.05L16998.5 1418.65L17254 1418.65L17254 1476.05ZM17254 1360.54L16998.5 1360.54L16998.5 1266.39L17207.4 1170.14L17207.4 1158.24L17213.7 1165.24L16998.5 1165.24L16998.5 1111.34L17254 1111.34L17254 1206.19L17045 1302.44L17045 1314.34L17038.7 1307.34L17254 1307.34L17254 1360.54ZM17260.6 932.847C17260.6 955.714 17256.9 975.664 17249.4 992.697C17241.7 1009.73 17231.5 1023.85 17218.6 1035.05C17205.8 1046.01 17191.6 1054.18 17175.9 1059.55C17160.3 1064.91 17144.7 1067.6 17129 1067.6L17121.3 1067.6C17105.2 1067.6 17089.5 1064.91 17074.1 1059.55C17058.7 1054.18 17044.7 1046.13 17032.1 1035.4C17019.5 1024.43 17009.5 1010.9 17002 994.797C16994.5 978.464 16990.8 959.681 16990.8 938.447C16990.8 915.347 16995.1 894.931 17003.7 877.197C17012.1 859.464 17023.9 845.231 17039.1 834.497C17054 823.764 17071.4 817.581 17091.2 815.947L17091.2 873.347C17081.9 874.747 17073.7 878.481 17066.7 884.547C17059.7 890.381 17054.3 897.964 17050.3 907.297C17046.3 916.397 17044.3 926.781 17044.3 938.447C17044.3 949.647 17046.3 959.681 17050.3 968.547C17054.3 977.181 17059.9 984.647 17067.1 990.947C17074.3 997.014 17083 1001.68 17093 1004.95C17102.8 1007.98 17113.6 1009.5 17125.5 1009.5C17137.9 1009.5 17149.2 1007.86 17159.5 1004.6C17169.5 1001.1 17178.3 996.081 17185.7 989.547C17193 983.014 17198.6 974.964 17202.5 965.397C17206.5 955.597 17208.5 944.747 17208.5 932.847C17208.5 916.981 17205.2 903.214 17198.7 891.547C17192.2 879.881 17183.5 871.481 17172.8 866.347L17212 873.347L17151.1 873.347L17151.1 820.497L17205.7 820.497C17223.4 831.464 17237.1 846.631 17246.6 865.997C17256 885.131 17260.6 907.414 17260.6 932.847ZM17162.3 940.197L17121 940.197L17121 799.497L17162.3 799.497L17162.3 940.197Z" fill="#CC36C1"/>
<path d="M17476.2 1063.65C17453.1 1063.65 17433.3 1059.68 17416.7 1051.75C17400.2 1043.58 17386.6 1032.97 17376.1 1019.9C17365.6 1006.6 17357.8 992.367 17352.7 977.2C17347.8 961.8 17345.3 946.867 17345.3 932.4V924.7C17345.3 908.833 17347.9 893.2 17353 877.8C17358.2 862.167 17366 848.05 17376.5 835.45C17387.2 822.85 17400.6 812.817 17416.7 805.35C17433.1 797.65 17452.3 793.8 17474.5 793.8C17497.6 793.8 17518 798.117 17535.7 806.75C17553.5 815.383 17567.6 827.4 17578.1 842.8C17588.8 857.967 17595.1 875.817 17597 896.35H17539.2C17537.6 886.083 17533.9 877.333 17528 870.1C17522.2 862.867 17514.6 857.267 17505.3 853.3C17496.2 849.333 17485.9 847.35 17474.5 847.35C17463 847.35 17452.9 849.333 17444 853.3C17435.2 857.267 17427.7 862.867 17421.6 870.1C17415.8 877.333 17411.2 885.967 17408 896C17404.9 905.8 17403.4 916.767 17403.4 928.9C17403.4 940.8 17404.9 951.767 17408 961.8C17411.2 971.6 17415.9 980.233 17422 987.7C17428.3 994.933 17436 1000.53 17445.1 1004.5C17454.2 1008.23 17464.6 1010.1 17476.2 1010.1C17494 1010.1 17508.9 1005.78 17521 997.15C17533.4 988.517 17540.9 976.617 17543.4 961.45H17600.8C17598.7 980.117 17592.4 997.267 17581.9 1012.9C17571.7 1028.3 17557.5 1040.67 17539.6 1050C17521.8 1059.1 17500.7 1063.65 17476.2 1063.65ZM17761.4 1063.65C17738.3 1063.65 17718.1 1059.68 17700.9 1051.75C17683.8 1043.58 17669.7 1032.97 17658.5 1019.9C17647.3 1006.6 17638.9 992.25 17633.3 976.85C17627.9 961.45 17625.3 946.633 17625.3 932.4V924.7C17625.3 908.833 17628.1 893.2 17633.7 877.8C17639.5 862.167 17648.1 848.05 17659.6 835.45C17671 822.85 17685.2 812.817 17702.3 805.35C17719.3 797.65 17739 793.8 17761.4 793.8C17783.8 793.8 17803.5 797.65 17820.6 805.35C17837.6 812.817 17851.8 822.85 17863.3 835.45C17874.7 848.05 17883.3 862.167 17889.2 877.8C17895 893.2 17897.9 908.833 17897.9 924.7V932.4C17897.9 946.633 17895.1 961.45 17889.5 976.85C17883.9 992.25 17875.5 1006.6 17864.3 1019.9C17853.1 1032.97 17838.9 1043.58 17821.6 1051.75C17804.6 1059.68 17784.5 1063.65 17761.4 1063.65ZM17761.4 1010.1C17773.5 1010.1 17784.4 1008 17794 1003.8C17803.8 999.6 17812 993.767 17818.8 986.3C17825.8 978.833 17831.1 970.2 17834.6 960.4C17838.1 950.6 17839.8 940.1 17839.8 928.9C17839.8 917 17837.9 906.15 17834.2 896.35C17830.7 886.317 17825.5 877.683 17818.5 870.45C17811.7 862.983 17803.5 857.267 17794 853.3C17784.4 849.333 17773.5 847.35 17761.4 847.35C17749.3 847.35 17738.4 849.333 17728.9 853.3C17719.3 857.267 17711 862.983 17704 870.45C17697.2 877.683 17692.1 886.317 17688.6 896.35C17685.1 906.15 17683.4 917 17683.4 928.9C17683.4 940.1 17685.1 950.6 17688.6 960.4C17692.1 970.2 17697.2 978.833 17704 986.3C17711 993.767 17719.3 999.6 17728.9 1003.8C17738.4 1008 17749.3 1010.1 17761.4 1010.1ZM17941.4 1057V801.5H18020.5L18079 945H18085.6L18143.4 801.5H18223.9V1057H18167.2V838.95L18175.2 839.65L18107.7 1005.2H18053.1L17985.2 839.65L17993.9 838.95V1057H17941.4ZM18281.2 1057V801.5H18360.3L18418.7 945H18425.4L18483.1 801.5H18563.6V1057H18506.9V838.95L18515 839.65L18447.4 1005.2H18392.8L18324.9 839.65L18333.7 838.95V1057H18281.2ZM18728 1063.65C18704 1063.65 18683.5 1059.22 18666.7 1050.35C18650.2 1041.25 18637.6 1028.42 18628.9 1011.85C18620.3 995.283 18616 975.683 18616 953.05V801.5H18673.4V955.15C18673.4 966.35 18675.5 976.15 18679.7 984.55C18684.1 992.717 18690.3 999.017 18698.2 1003.45C18706.4 1007.88 18716.3 1010.1 18728 1010.1C18739.9 1010.1 18749.8 1007.88 18757.7 1003.45C18765.9 999.017 18772.1 992.717 18776.3 984.55C18780.5 976.383 18782.6 966.583 18782.6 955.15V801.5H18840V953.05C18840 975.683 18835.7 995.283 18827 1011.85C18818.4 1028.42 18805.8 1041.25 18789.2 1050.35C18772.7 1059.22 18752.3 1063.65 18728 1063.65ZM18892.6 1057V801.5H18986.8L19083 1010.45H19094.9L19087.9 1016.75V801.5H19141.8V1057H19047L18950.7 848.05H18938.8L18945.8 841.75V1057H18892.6ZM19199.9 1057V801.5H19257.3V1057H19199.9ZM19366.2 1057V844.55H19423.6V1057H19366.2ZM19294.4 851.55V801.5H19495.7V851.55H19294.4ZM19582.1 960.05L19507.6 801.5H19566.4L19619.9 920.15L19609.8 917H19639.2L19628.3 920.15L19676.6 801.5H19732.3L19663.7 960.05H19582.1ZM19594.7 1057V952H19651.1V1057H19594.7ZM19887.8 1058.4V1004.85H19935.4C19947.3 1004.85 19958 1003.1 19967.6 999.6C19977.1 995.867 19985.3 990.733 19992.1 984.2C19998.8 977.433 20004 969.383 20007.5 960.05C20011 950.483 20012.7 939.983 20012.7 928.55C20012.7 916.65 20011 906.033 20007.5 896.7C20004 887.367 19998.8 879.433 19992.1 872.9C19985.3 866.367 19977.1 861.467 19967.6 858.2C19958 854.7 19947.3 852.95 19935.4 852.95H19887.8V799.4H19932.2C19955.3 799.4 19975.5 802.783 19992.8 809.55C20010 816.317 20024.5 825.533 20036.2 837.2C20047.8 848.867 20056.5 862.283 20062.1 877.45C20067.9 892.383 20070.8 908.133 20070.8 924.7V932.4C20070.8 947.8 20067.9 963.083 20062.1 978.25C20056.5 993.183 20047.8 1006.72 20036.2 1018.85C20024.5 1030.75 20010 1040.32 19992.8 1047.55C19975.5 1054.78 19955.3 1058.4 19932.2 1058.4H19887.8ZM19837.4 1058.4V799.4H19894.8V1058.4H19837.4ZM20075.7 1057L20160.1 801.5H20252.8L20340.3 1057H20280.8L20210.1 841.05L20228.3 848.4H20183.2L20202.1 841.05L20133.1 1057H20075.7ZM20139.8 993.65L20157.3 946.05L20257.4 946.05L20275.2 993.65L20139.8 993.65ZM20398.7 960.05L20324.1 801.5H20382.9L20436.5 920.15L20426.3 917H20455.7L20444.9 920.15L20493.2 801.5H20548.8L20480.2 960.05H20398.7ZM20411.3 1057V952H20467.6V1057H20411.3Z" fill="#CC36C1"/>
<path d="M20663.2 857.154L20708 857.154L20708 917.004C20708 927.737 20710.8 935.787 20716.4 941.154C20722 946.521 20730 949.204 20740.2 949.204C20750.5 949.204 20758.3 946.521 20763.7 941.154C20769.3 935.787 20772.1 927.737 20772.1 917.004L20772.1 857.154L20806.7 857.154L20806.7 914.204C20806.7 931.937 20804.5 947.687 20800.1 961.454C20795.9 975.221 20789 986.071 20779.4 994.004C20769.9 1001.94 20756.9 1005.9 20740.6 1005.9L20735.7 1005.9C20720.5 1005.9 20707.5 1002.4 20696.5 995.404C20685.8 988.404 20677.5 978.137 20671.6 964.604C20666 951.071 20663.2 934.271 20663.2 914.204L20663.2 857.154ZM20663.2 808.154L20922.6 808.154L20922.6 864.154L20663.2 864.154L20663.2 808.154ZM20781.2 857.154L20815.5 857.154L20815.5 907.554C20815.5 918.521 20818.3 926.454 20823.9 931.354C20829.5 936.254 20837 938.704 20846.3 938.704C20856.1 938.704 20863.8 936.254 20869.4 931.354C20875 926.454 20877.8 918.521 20877.8 907.554L20877.8 857.154L20922.6 857.154L20922.6 904.054C20922.6 933.454 20916.4 955.971 20904 971.604C20891.7 987.471 20874.1 995.404 20851.2 995.404L20845.9 995.404C20830.1 995.404 20817.4 991.321 20807.8 983.154C20798.2 975.221 20791.3 964.371 20787.1 950.604C20783.2 937.071 20781.2 921.554 20781.2 904.054L20781.2 857.154ZM20665 1050.49L20922.6 1050.49L20922.6 1107.89L20665 1107.89L20665 1050.49ZM20665 1205.54L20774.9 1130.64L20774.9 1193.64L20665 1272.04L20665 1205.54ZM20746.9 1092.49L20792 1092.49L20792 1155.49C20792 1163.89 20793.7 1171.12 20796.9 1177.19C20800.4 1183.49 20805.2 1188.27 20811.3 1191.54C20817.6 1195.04 20824.8 1196.79 20833 1196.79C20841.2 1196.79 20848.3 1195.04 20854.3 1191.54C20860.6 1188.27 20865.4 1183.49 20868.7 1177.19C20872.2 1171.12 20873.9 1163.89 20873.9 1155.49L20873.9 1092.49L20922.6 1092.49L20922.6 1150.94C20922.6 1172.17 20919.3 1190.6 20912.8 1206.24C20906.5 1221.87 20897 1233.89 20884.4 1242.29C20871.8 1250.69 20856 1254.89 20836.8 1254.89L20831.2 1254.89C20812.3 1254.89 20796.6 1250.57 20784 1241.94C20771.6 1233.54 20762.3 1221.52 20756 1205.89C20749.9 1190.49 20746.9 1172.17 20746.9 1150.94L20746.9 1092.49ZM20665 1282L20920.5 1366.35L20920.5 1459.1L20665 1546.6L20665 1487.1L20880.9 1416.4L20873.6 1434.6L20873.6 1389.45L20880.9 1408.35L20665 1339.4L20665 1282ZM20728.3 1346.05L20775.9 1363.55L20775.9 1463.65L20728.3 1481.5L20728.3 1346.05ZM20658.3 1667.46C20658.3 1644.36 20662 1624.88 20669.2 1609.01C20676.7 1593.15 20686.7 1581.13 20699.3 1572.96C20712.1 1564.8 20726.8 1560.71 20743.4 1560.71L20743.4 1616.36C20736.9 1616.36 20730.8 1618.11 20725.2 1621.61C20719.6 1625.35 20715 1630.95 20711.5 1638.41C20708.3 1645.88 20706.6 1655.56 20706.6 1667.46C20706.6 1678.2 20708 1687.18 20710.8 1694.41C20713.6 1701.65 20717.5 1707.13 20722.4 1710.86C20727.5 1714.6 20733.4 1716.46 20739.9 1716.46C20748.1 1716.46 20754.5 1712.96 20759.1 1705.96C20764 1698.96 20767.2 1687.65 20768.6 1672.01L20770.3 1652.76C20772.4 1627.33 20780.4 1607.03 20794.1 1591.86C20807.9 1576.7 20826.1 1569.11 20848.7 1569.11C20865.1 1569.11 20879.2 1572.96 20891.1 1580.66C20903 1588.6 20912.1 1599.56 20918.4 1613.56C20924.9 1627.56 20928.2 1644.13 20928.2 1663.26C20928.2 1683.33 20924.7 1700.48 20917.7 1714.71C20910.9 1729.18 20901.2 1740.26 20888.6 1747.96C20876.3 1755.66 20861.7 1759.51 20844.9 1759.51L20844.9 1703.51C20851.2 1703.51 20856.9 1702 20862 1698.96C20867.4 1695.93 20871.7 1691.38 20875 1685.31C20878.3 1679.48 20879.9 1672.13 20879.9 1663.26C20879.9 1654.86 20878.5 1647.75 20875.7 1641.91C20872.9 1636.31 20869 1632.11 20864.1 1629.31C20859.5 1626.51 20854.3 1625.11 20848.7 1625.11C20841.5 1625.11 20835.2 1627.68 20829.8 1632.81C20824.5 1637.95 20821.3 1646.35 20820.4 1658.01L20818.6 1677.61C20817 1696.28 20812.9 1712.73 20806.4 1726.96C20800.1 1741.2 20791.3 1752.28 20780.1 1760.21C20769.2 1768.38 20755.8 1772.46 20739.9 1772.46C20723.6 1772.46 20709.2 1768.15 20696.8 1759.51C20684.7 1751.11 20675.3 1739.1 20668.5 1723.46C20661.7 1707.83 20658.3 1689.16 20658.3 1667.46ZM20665 1812.71L20920.5 1812.71L20920.5 1870.11L20665 1870.11L20665 1812.71ZM20665 1928.22L20920.5 1928.22L20920.5 1985.62L20665 1985.62L20665 1928.22ZM20665 1978.62L20715.4 1978.62L20715.4 2085.72L20665 2085.72L20665 1978.62ZM20665 2189.17L20717.5 2189.17C20728.5 2189.17 20738 2190.92 20746.2 2194.42C20754.4 2198.16 20761.6 2203.99 20767.9 2211.92C20774.4 2219.86 20780.5 2230.36 20786.1 2243.42L20803.9 2284.72C20808.4 2295.22 20813.9 2302.92 20820.4 2307.82C20826.9 2312.96 20835.2 2315.52 20845.2 2315.52C20855.5 2315.52 20863.9 2312.37 20870.4 2306.07C20877 2299.77 20880.2 2290.56 20880.2 2278.42C20880.2 2266.29 20876.9 2257.07 20870.1 2250.77C20863.3 2244.47 20854.2 2241.32 20842.8 2241.32L20842.8 2185.67C20858.9 2185.67 20873.4 2189.17 20886.2 2196.17C20899.3 2203.17 20909.5 2213.56 20917 2227.32C20924.5 2241.09 20928.2 2258.12 20928.2 2278.42C20928.2 2298.72 20924.6 2315.64 20917.3 2329.17C20910.1 2342.94 20900.4 2353.32 20888.3 2360.32C20876.2 2367.56 20862.5 2371.17 20847.3 2371.17L20843.1 2371.17C20823.5 2371.17 20807.3 2365.81 20794.5 2355.07C20781.9 2344.34 20770.7 2327.77 20760.9 2305.37L20743 2264.42C20740 2257.42 20736.9 2252.41 20733.6 2249.37C20730.3 2246.57 20725.9 2245.17 20720.3 2245.17L20702.8 2245.17L20714.3 2231.52L20714.3 2371.52L20665 2371.52L20665 2189.17ZM20658.3 2523.02C20658.3 2502.72 20661.6 2485.33 20668.1 2470.87C20674.9 2456.4 20684 2444.62 20695.4 2435.52C20706.9 2426.65 20720.1 2420 20735 2415.57C20750.2 2411.37 20766.1 2409.27 20782.9 2409.27L20802.9 2409.27C20826.2 2409.27 20847.3 2413.35 20866.2 2421.52C20885.1 2429.68 20900.2 2442.17 20911.4 2458.97C20922.6 2475.77 20928.2 2497.12 20928.2 2523.02C20928.2 2548.92 20922.6 2570.15 20911.4 2586.72C20900.2 2603.52 20885.1 2616 20866.2 2624.17C20847.3 2632.33 20826.2 2636.42 20802.9 2636.42L20782.9 2636.42C20766.1 2636.42 20750.2 2634.2 20735 2629.77C20720.1 2625.57 20706.9 2618.92 20695.4 2609.82C20684 2600.95 20674.9 2589.28 20668.1 2574.82C20661.6 2560.58 20658.3 2543.32 20658.3 2523.02ZM20711.2 2523.02C20711.2 2541.92 20717.7 2555.92 20730.8 2565.02C20744.1 2574.35 20764.6 2579.02 20792.4 2579.02C20821.8 2579.02 20842.9 2574.23 20855.7 2564.67C20868.8 2555.33 20875.3 2541.45 20875.3 2523.02C20875.3 2504.12 20868.8 2490 20855.7 2480.67C20842.9 2471.33 20822 2466.67 20793.1 2466.67C20765.1 2466.67 20744.4 2471.22 20731.1 2480.32C20717.8 2489.65 20711.2 2503.88 20711.2 2523.02ZM20665 2677.26L20717.5 2677.26C20728.5 2677.26 20738 2679.01 20746.2 2682.51C20754.4 2686.24 20761.6 2692.08 20767.9 2700.01C20774.4 2707.94 20780.5 2718.44 20786.1 2731.51L20803.9 2772.81C20808.4 2783.31 20813.9 2791.01 20820.4 2795.91C20826.9 2801.04 20835.2 2803.61 20845.2 2803.61C20855.5 2803.61 20863.9 2800.46 20870.4 2794.16C20877 2787.86 20880.2 2778.64 20880.2 2766.51C20880.2 2754.38 20876.9 2745.16 20870.1 2738.86C20863.3 2732.56 20854.2 2729.41 20842.8 2729.41L20842.8 2673.76C20858.9 2673.76 20873.4 2677.26 20886.2 2684.26C20899.3 2691.26 20909.5 2701.64 20917 2715.41C20924.5 2729.18 20928.2 2746.21 20928.2 2766.51C20928.2 2786.81 20924.6 2803.73 20917.3 2817.26C20910.1 2831.03 20900.4 2841.41 20888.3 2848.41C20876.2 2855.64 20862.5 2859.26 20847.3 2859.26L20843.1 2859.26C20823.5 2859.26 20807.3 2853.89 20794.5 2843.16C20781.9 2832.43 20770.7 2815.86 20760.9 2793.46L20743 2752.51C20740 2745.51 20736.9 2740.49 20733.6 2737.46C20730.3 2734.66 20725.9 2733.26 20720.3 2733.26L20702.8 2733.26L20714.3 2719.61L20714.3 2859.61L20665 2859.61L20665 2677.26ZM20665 2898.4L20717.5 2898.4C20728.5 2898.4 20738 2900.15 20746.2 2903.65C20754.4 2907.39 20761.6 2913.22 20767.9 2921.15C20774.4 2929.09 20780.5 2939.59 20786.1 2952.65L20803.9 2993.95C20808.4 3004.45 20813.9 3012.15 20820.4 3017.05C20826.9 3022.19 20835.2 3024.75 20845.2 3024.75C20855.5 3024.75 20863.9 3021.6 20870.4 3015.3C20877 3009 20880.2 2999.79 20880.2 2987.65C20880.2 2975.52 20876.9 2966.3 20870.1 2960C20863.3 2953.7 20854.2 2950.55 20842.8 2950.55L20842.8 2894.9C20858.9 2894.9 20873.4 2898.4 20886.2 2905.4C20899.3 2912.4 20909.5 2922.79 20917 2936.55C20924.5 2950.32 20928.2 2967.35 20928.2 2987.65C20928.2 3007.95 20924.6 3024.87 20917.3 3038.4C20910.1 3052.17 20900.4 3062.55 20888.3 3069.55C20876.2 3076.79 20862.5 3080.4 20847.3 3080.4L20843.1 3080.4C20823.5 3080.4 20807.3 3075.04 20794.5 3064.3C20781.9 3053.57 20770.7 3037 20760.9 3014.6L20743 2973.65C20740 2966.65 20736.9 2961.64 20733.6 2958.6C20730.3 2955.8 20725.9 2954.4 20720.3 2954.4L20702.8 2954.4L20714.3 2940.75L20714.3 3080.75L20665 3080.75L20665 2898.4Z" fill="#CC36C1"/>
<rect x="1498" y="1337.5" width="1127" height="1127" fill="white"/>
<path fill-rule="evenodd" clip-rule="evenodd" d="M5838 1337.5H4711V2464.5H5838V1337.5ZM5575 1600.5H4974V2201.5H5575V1600.5Z" fill="white"/>
<rect x="3306" y="1220" width="963.081" height="963.081" transform="rotate(45 3306 1220)" fill="white"/>
<circle cx="4159" cy="2889.5" r="552" fill="white"/>
<defs>
<clipPath id="clip0_1412_578">
<rect width="3932" height="1313" fill="white" transform="translate(2625 9024)"/>
</clipPath>
</defs>
</svg>